<?xml version="1.0" encoding="utf-8"?>
<!-- Generator: Adobe Illustrator 19.1.0, SVG Export Plug-In . SVG Version: 6.00 Build 0)  -->
<svg version="1.1" id="Layer_1" xmlns="http://www.w3.org/2000/svg" xmlns:xlink="http://www.w3.org/1999/xlink" x="0px" y="0px"
	 viewBox="0 0 559 32" style="enable-background:new 0 0 559 32;" xml:space="preserve">
<style type="text/css">
	.st0{fill-rule:evenodd;clip-rule:evenodd;stroke:#00FFFF;stroke-miterlimit:10;}
	.st1{fill-rule:evenodd;clip-rule:evenodd;fill:#FFFFFF;}
	.st2{fill-rule:evenodd;clip-rule:evenodd;fill:url(#SVGID_1_);}
	.st3{fill-rule:evenodd;clip-rule:evenodd;fill:url(#SVGID_2_);}
	.st4{fill:#FFFFFF;}
	.st5{font-family:'Cambria-Italic';}
	.st6{font-size:13px;}
</style>
<path class="st0" d="M443,16.5l5.5-5.5l5.5,5.5l-5.5,5.5L443,16.5z"/>
<path class="st0" d="M103,16.5l5.5-5.5l5.5,5.5l-5.5,5.5L103,16.5z"/>
<path class="st1" d="M115.5,31.5v-1h327v1H115.5z"/>
<linearGradient id="SVGID_1_" gradientUnits="userSpaceOnUse" x1="96.5" y1="17" x2="-0.5" y2="17">
	<stop  offset="0" style="stop-color:#FFFFFF"/>
	<stop  offset="1" style="stop-color:#000000;stop-opacity:0"/>
</linearGradient>
<path class="st2" d="M-0.5,16.5h97v1h-97V16.5z"/>
<linearGradient id="SVGID_2_" gradientUnits="userSpaceOnUse" x1="558.5" y1="236.5" x2="461.5" y2="236.5" gradientTransform="matrix(-1 0 0 -1 1020 254)">
	<stop  offset="0" style="stop-color:#FFFFFF"/>
	<stop  offset="1" style="stop-color:#000000;stop-opacity:0"/>
</linearGradient>
<path class="st3" d="M558.5,18h-97v-1h97L558.5,18z"/>
<path class="st1" d="M116.8,3.5l-1.2-3h326.9l-1.1,3H116.8z"/>
<text transform="matrix(1 0 0 1 134.9067 24.6042)" class="st4 st5 st6">A STRUCTURED CLUSTER OF PRE-CONCEIVED IDEAS</text>
</svg>
