<?xml version="1.0" encoding="utf-8"?>
<!-- Generator: Adobe Illustrator 19.1.0, SVG Export Plug-In . SVG Version: 6.00 Build 0)  -->
<svg version="1.1" xmlns="http://www.w3.org/2000/svg" xmlns:xlink="http://www.w3.org/1999/xlink" x="0px" y="0px"
	 viewBox="0 0 151 151" style="enable-background:new 0 0 151 151;" xml:space="preserve">
<style type="text/css">
	.st0{fill:#4EC4C8;}
	.st1{clip-path:url(#SVGID_2_);}
	.st2{clip-path:url(#SVGID_4_);}
	.st3{clip-path:url(#SVGID_6_);}
	.st4{clip-path:url(#SVGID_8_);}
	.st5{fill:#FFFFFF;}
</style>
<g id="Layer_8">
	<rect x="49.8" y="10.7" transform="matrix(0.718 -0.6961 0.6961 0.718 -3.9714 62.7844)" class="st0" width="51.4" height="51.3"/>
	
		<rect x="10.6" y="49.9" transform="matrix(0.718 -0.6961 0.6961 0.718 -42.3116 46.5557)" class="st0" width="51.4" height="51.3"/>
	<rect x="89" y="49.9" transform="matrix(0.718 -0.6961 0.6961 0.718 -20.2013 101.1241)" class="st0" width="51.4" height="51.3"/>
	
		<rect x="49.8" y="89.1" transform="matrix(0.718 -0.6961 0.6961 0.718 -58.5415 84.8954)" class="st0" width="51.4" height="51.3"/>
</g>
<g id="Layer_3">
	<g>
		<defs>
			
				<rect id="SVGID_1_" x="10.6" y="49.9" transform="matrix(0.718 -0.6961 0.6961 0.718 -42.3116 46.5557)" width="51.4" height="51.3"/>
		</defs>
		<clipPath id="SVGID_2_">
			<use xlink:href="#SVGID_1_"  style="overflow:visible;"/>
		</clipPath>
		<circle class="st1" cx="75.5" cy="75.5" r="31.3"/>
	</g>
	<g>
		<defs>
			
				<rect id="SVGID_3_" x="49.8" y="89.1" transform="matrix(0.718 -0.6961 0.6961 0.718 -58.5415 84.8954)" width="51.4" height="51.3"/>
		</defs>
		<clipPath id="SVGID_4_">
			<use xlink:href="#SVGID_3_"  style="overflow:visible;"/>
		</clipPath>
		<circle class="st2" cx="75.5" cy="75.5" r="31.3"/>
	</g>
	<g>
		<defs>
			
				<rect id="SVGID_5_" x="89" y="49.9" transform="matrix(0.718 -0.6961 0.6961 0.718 -20.2013 101.1241)" width="51.4" height="51.3"/>
		</defs>
		<clipPath id="SVGID_6_">
			<use xlink:href="#SVGID_5_"  style="overflow:visible;"/>
		</clipPath>
		<circle class="st3" cx="75.5" cy="75.5" r="31.3"/>
	</g>
	<g>
		<defs>
			
				<rect id="SVGID_7_" x="49.8" y="10.7" transform="matrix(0.718 -0.6961 0.6961 0.718 -3.9714 62.7844)" width="51.4" height="51.3"/>
		</defs>
		<clipPath id="SVGID_8_">
			<use xlink:href="#SVGID_7_"  style="overflow:visible;"/>
		</clipPath>
		<circle class="st4" cx="75.5" cy="75.5" r="31.3"/>
	</g>
</g>
<g id="S_1_">
	<g>
		<path class="st5" d="M78.9,70.2l2.1,2.8l1.2,1.5c2.3,3,3.4,6.2,3.3,9.5c-0.1,3.2-1.2,6-3.4,8.4c-3,3.2-6.9,4.8-11.6,4.6
			c-3.6-0.1-6.6-1.3-8.8-3.6c-2.3-2.3-3.3-5.2-3.2-8.7c0.1-4.3,2.1-7.8,5.8-10.5c2-1.5,3.8-2.2,5.4-2.1c0.8,0,1.5,0.3,2,0.8
			c0.5,0.5,0.8,1.1,0.7,1.9c0,1-0.7,1.9-1.9,2.6l-1.9,1.1c-1.1,0.6-2,1.5-2.8,2.7c-0.8,1.2-1.2,2.4-1.2,3.5
			c-0.1,1.9,0.5,3.4,1.7,4.7c1.2,1.2,2.8,1.9,4.7,2c2.1,0.1,4-0.7,5.6-2.2c1.6-1.6,2.5-3.4,2.5-5.6c0-1.4-0.2-2.6-0.8-3.8
			c-0.6-1.1-1.9-2.9-4-5.4c-1.4-1.7-2.5-3.2-3.1-4.4L65,69.7c-2.2-0.1-3.2-0.8-3.2-2.3c0-1.1,0.4-1.9,1.2-2.5
			c0.8-0.6,1.9-0.8,3.2-0.8l4,0.1c0.4-3.1,1.9-5.6,4.5-7.5c2.6-1.9,5.6-2.9,9.1-2.8c2.6,0.1,4.8,0.9,6.4,2.4
			c1.6,1.5,2.4,3.4,2.3,5.7c-0.1,3.1-1.5,5.4-4.2,7c-1.5,0.9-3.9,1.3-7.2,1.2L78.9,70.2z M76.2,64.5l5.6,0.2
			c3.2,0.1,4.8-0.8,4.8-2.6c0-0.7-0.3-1.3-0.9-1.8c-0.6-0.5-1.5-0.7-2.6-0.7c-1.7-0.1-3.2,0.4-4.7,1.4C77.2,62,76.4,63.1,76.2,64.5z
			"/>
	</g>
</g>
</svg>
