<?xml version="1.0" standalone="no"?>
<!DOCTYPE svg PUBLIC "-//W3C//DTD SVG 1.1//EN" "http://www.w3.org/Graphics/SVG/1.1/DTD/svg11.dtd" >
<svg>
<metadata>
Created by FontForge 20090914 at Sat Aug 29 03:51:45 2015
 By www-data
Copyright (c) 1994, Tobias Frere-Jones. Designed by Tobias Frere-Jones. Produced by The Font Bureau, Inc. All rights reserved.
</metadata>
<defs>
<font id="NiagaraSolid-Reg" horiz-adv-x="614" >
  <font-face 
    font-family="Niagara Solid"
    font-weight="400"
    font-stretch="condensed"
    units-per-em="2048"
    panose-1="4 2 5 2 7 7 2 2 2 2"
    ascent="1638"
    descent="-410"
    x-height="1065"
    cap-height="1434"
    bbox="-193 -401 1403 1792"
    underline-thickness="120"
    underline-position="-212"
    unicode-range="U+0020-U+F002"
  />
<missing-glyph horiz-adv-x="1024" 
d="M128 0v1638h768v-1638h-768zM256 128h512v1382h-512v-1382z" />
    <glyph glyph-name=".notdef" horiz-adv-x="1024" 
d="M128 0v1638h768v-1638h-768zM256 128h512v1382h-512v-1382z" />
    <glyph glyph-name="space" unicode=" " horiz-adv-x="307" 
 />
    <glyph glyph-name="exclam" unicode="!" horiz-adv-x="319" 
d="M242 852l-52 -545h-61l-51 545v582h164v-582zM242 0h-164v246h164v-246z" />
    <glyph glyph-name="quotedbl" unicode="&#x22;" horiz-adv-x="492" 
d="M438 1397l-49 -393h-65l-50 393v37h164v-37zM217 1397l-49 -393h-66l-49 393v37h164v-37z" />
    <glyph glyph-name="numbersign" unicode="#" horiz-adv-x="717" 
d="M707 1004h-89l-49 -574h97v-37h-101l-33 -393h-159l33 393h-152l-33 -393h-160l33 393h-84v37h88l49 574h-96v36h101l32 394h160l-33 -394h152l33 394h159l-32 -394h84v-36zM459 1004h-152l-49 -574h152z" />
    <glyph glyph-name="dollar" unicode="$" horiz-adv-x="578" 
d="M524 209c0 -54.667 -19.833 -101.5 -59.5 -140.5s-90.167 -61.167 -151.5 -66.5v-125h-49v123c-61.333 6 -111.833 28.667 -151.5 68s-59.5 86.333 -59.5 141v221h164v-311c0 -54.667 24 -82 72 -82c47.333 0 71 27.333 71 82v239c0 68 -16.333 127.667 -49 179l-205 319
c-35.333 55.333 -53 116.666 -53 183.999v185c0 54 19.833 100.667 59.5 140s90.167 61.666 151.5 66.999v124h49v-124c61.333 -5.33301 111.833 -27.666 151.5 -66.999s59.5 -86 59.5 -140v-221h-164v311c0 54.667 -23.667 82 -71 82c-48 0 -72 -27.333 -72 -82v-230
c0 -67.333 16.333 -126.666 49 -177.999l205 -319c35.333 -55.333 53 -117 53 -185v-194z" />
    <glyph glyph-name="percent" unicode="%" horiz-adv-x="993" 
d="M440 780c0 -48.667 -18.667 -90.167 -56 -124.5s-84 -51.5 -140 -51.5c-56.667 0 -103.667 17.167 -141 51.5s-56 75.833 -56 124.5v488c0 48.667 18.667 90.167 56 124.5s84.333 51.5 141 51.5c56 0 102.667 -17.167 140 -51.5s56 -75.833 56 -124.5v-488zM786 1434
l-532 -1434h-47l532 1434h47zM946 166c0 -48.667 -18.667 -90.167 -56 -124.5s-84 -51.5 -140 -51.5c-56.667 0 -103.667 17.167 -141 51.5s-56 75.833 -56 124.5v487c0 49.333 18.667 91 56 125s84.333 51 141 51c56 0 102.667 -17 140 -51s56 -75.667 56 -125v-487z
M299 707v634c0 44 -18.333 66 -55 66c-37.333 0 -56 -22 -56 -66v-634c0 -44 18.667 -66 56 -66c36.667 0 55 22 55 66zM805 92v635c0 44 -18.333 66 -55 66c-37.333 0 -56 -22 -56 -66v-635c0 -43.333 18.667 -65 56 -65c36.667 0 55 21.667 55 65z" />
    <glyph glyph-name="ampersand" unicode="&#x26;" horiz-adv-x="631" 
d="M604 739l-51 0.000976562v-540c0 -57.333 -24 -106.5 -72 -147.5s-106 -61.5 -174 -61.5c-67.333 0 -125.166 20.5 -173.499 61.5s-72.5 90.167 -72.5 147.5v368c0 87.333 48 151 144 191c-96 37.333 -144 100.666 -144 189.999v287c0 57.333 24.167 106.5 72.5 147.5
s106.166 61.5 173.499 61.5c68 0 126 -20.5 174 -61.5s72 -90.167 72 -147.5v-231h-164v321c0 22.667 -8 42 -24 58s-35.333 24 -58 24s-42 -8 -58 -24s-24 -35.333 -24 -58v-467c0 -22.667 8 -42 24 -58s35.333 -24 58 -24h297v-37zM389 109.001v630h-82
c-22.667 0 -42 -8 -58 -24s-24 -35.333 -24 -58v-548c0 -22.667 8 -42 24 -58s35.333 -24 58 -24s42 8 58 24s24 35.333 24 58z" />
    <glyph glyph-name="quotesingle" unicode="'" horiz-adv-x="270" 
d="M217 1397l-49 -393h-66l-49 393v37h164v-37z" />
    <glyph glyph-name="parenleft" unicode="(" horiz-adv-x="358" 
d="M324 0h-31c-66.667 -0 -122 20.333 -166 61s-66 90 -66 148v1016c0 58 22 107.333 66 148s99.333 61 166 61h31v-37h-31c-48 0 -72 -27.333 -72 -82v-1196c0 -54.667 24 -82 72 -82h31v-37z" />
    <glyph glyph-name="parenright" unicode=")" horiz-adv-x="358" 
d="M297 209c0 -58 -21.833 -107.333 -65.5 -148s-98.834 -61 -165.501 -61h-31v37h31c47.333 0 71 27.333 71 82v1196c0 54.667 -23.667 82 -71 82h-31v37h31c66.667 0 121.834 -20.333 165.501 -61s65.5 -90 65.5 -148v-1016z" />
    <glyph glyph-name="asterisk" unicode="*" horiz-adv-x="553" 
d="M502 1061l-10 -17l-164 43l-41 -153h-21l-41 153l-164 -43l-10 17l129 123l-129 123l10 16l164 -43l41 154h21l41 -154l164 43l10 -16l-129 -123z" />
    <glyph glyph-name="plus" unicode="+" horiz-adv-x="471" 
d="M436 735h-174v-188h-53v188h-174v45h174v189h53v-189h174v-45z" />
    <glyph glyph-name="comma" unicode="," horiz-adv-x="256" 
d="M225 213l-114 -336h-76l33 369h157v-33z" />
    <glyph glyph-name="hyphen" unicode="-" horiz-adv-x="307" 
d="M272 733h-237v49h237v-49z" />
    <glyph glyph-name="hyphen" unicode="&#x2010;" horiz-adv-x="307" 
d="M272 733h-237v49h237v-49z" />
    <glyph glyph-name="period" unicode="." horiz-adv-x="256" 
d="M207 0h-158v246h158v-246z" />
    <glyph glyph-name="slash" unicode="/" horiz-adv-x="328" 
d="M295 1434l-205 -1434h-57l205 1434h57z" />
    <glyph glyph-name="zero" unicode="0" 
d="M553 199c0 -57.333 -24 -106.5 -72 -147.5s-106 -61.5 -174 -61.5c-67.333 0 -125.166 20.5 -173.499 61.5s-72.5 90.167 -72.5 147.5v1036c0 57.333 24.167 106.5 72.5 147.5s106.166 61.5 173.499 61.5c68 0 126 -20.5 174 -61.5s72 -90.167 72 -147.5v-1036zM389 109
v1216c0 22.667 -8 42 -24 58s-35.333 24 -58 24s-42 -8 -58 -24s-24 -35.333 -24 -58v-1216c0 -22.667 8 -42 24 -58s35.333 -24 58 -24s42 8 58 24s24 35.333 24 58z" />
    <glyph glyph-name="one" unicode="1" horiz-adv-x="330" 
d="M301 0h-266v37h51v1360h-51v37h215v-1397h51v-37z" />
    <glyph glyph-name="two" unicode="2" horiz-adv-x="594" 
d="M532 0h-471v393c0 67.333 18 129 54 185l204 319c33.333 51.333 50 110.666 50 177.999v250c0 54.667 -24 82 -72 82s-72 -27.333 -72 -82v-321h-164v231c0 58 22.667 107.333 68 148s101.333 61 168 61s122.5 -20.333 167.5 -61s67.5 -90 67.5 -148v-205
c0 -67.333 -17.667 -128.666 -53 -183.999l-205 -320c-32.667 -50.667 -49 -110 -49 -178v-311h144v393h163v-430z" />
    <glyph glyph-name="three" unicode="3" horiz-adv-x="594" 
d="M532 199c0 -60.667 -22.5 -110.668 -67.5 -150.001s-101.5 -59 -169.5 -59s-124.667 19.667 -170 59s-68 89.333 -68 150v231h164v-321c0 -54.667 24.667 -82 74 -82s74 27.333 74 82v548c0 22.667 -8 42 -24 58s-35.333 24 -58 24h-125v37h125c22.667 0 42 8 58 24
s24 35.333 24 58v467c0 54.667 -24.667 82 -74 82s-74 -27.333 -74 -82v-321h-164v231c0 60 22.667 109.833 68 149.5s102 59.5 170 59.5s124.5 -19.833 169.5 -59.5s67.5 -89.5 67.5 -149.5v-287c0 -89.333 -47.667 -152.666 -143 -189.999
c95.333 -40 143 -103.667 143 -191v-368z" />
    <glyph glyph-name="four" unicode="4" horiz-adv-x="532" 
d="M508 0h-266v37h51v293h-277v43l277 1061h164v-1061h51v-43h-51v-293h51v-37zM293 373v889l-230 -889h230z" />
    <glyph glyph-name="five" unicode="5" 
d="M553 199c0 -57.333 -24.001 -106.5 -72.001 -147.5s-106 -61.5 -174 -61.5c-67.333 0 -125.166 20.5 -173.499 61.5s-72.5 90.167 -72.5 147.5v231h164v-321c0 -22.667 8 -42 24 -58s35.333 -24 58 -24s42 8 58 24s24 35.333 24 58v548c0 22.667 -8 42 -24 58
s-35.333 24 -58 24h-235v695h460v-430h-163v393h-133v-621h71c68 0 126 -20.5 174 -61.5s72 -90.167 72 -147.5v-368z" />
    <glyph glyph-name="six" unicode="6" 
d="M553 199c0 -57.333 -24.001 -106.5 -72.001 -147.5s-106 -61.5 -174 -61.5c-67.333 0 -125.166 20.5 -173.499 61.5s-72.5 90.167 -72.5 147.5v1036c0 57.333 24.167 106.5 72.5 147.5s106.166 61.5 173.499 61.5c68 0 126 -20.5 174 -61.5s72 -90.167 72 -147.5v-231
h-164v321c0 22.667 -8 42 -24 58s-35.333 24 -58 24s-42 -8 -58 -24s-24 -35.333 -24 -58v-577c30.667 25.333 72.334 38 125.001 38c135.333 0 203 -62.667 203 -188v-399zM388.999 109l-0.000976562 559c0 51.333 -27.333 77 -82 77
c-29.333 0 -56.666 -11.333 -81.999 -34v-602c0 -22.667 8 -42 24 -58s35.333 -24 58 -24s42 8 58 24s24 35.333 24 58z" />
    <glyph glyph-name="seven" unicode="7" horiz-adv-x="567" 
d="M537 1397l-242 -1397h-162l242 1397h-180v-393h-160v430h502v-37z" />
    <glyph glyph-name="eight" unicode="8" 
d="M553 199c0 -57.333 -24 -106.5 -72 -147.5s-106 -61.5 -174 -61.5c-67.333 0 -125.166 20.5 -173.499 61.5s-72.5 90.167 -72.5 147.5v368c0 87.333 48 151 144 191c-96 37.333 -144 100.666 -144 189.999v287c0 57.333 24.167 106.5 72.5 147.5
s106.166 61.5 173.499 61.5c68 0 126 -20.5 174 -61.5s72 -90.167 72 -147.5v-287c0 -89.333 -47.667 -152.666 -143 -189.999c95.333 -40 143 -103.667 143 -191v-368zM389 858v467c0 22.667 -8 42 -24 58s-35.333 24 -58 24s-42 -8 -58 -24s-24 -35.333 -24 -58v-467
c0 -22.667 8 -42 24 -58s35.333 -24 58 -24s42 8 58 24s24 35.333 24 58zM389 109v548c0 22.667 -8 42 -24 58s-35.333 24 -58 24s-42 -8 -58 -24s-24 -35.333 -24 -58v-548c0 -22.667 8 -42 24 -58s35.333 -24 58 -24s42 8 58 24s24 35.333 24 58z" />
    <glyph glyph-name="nine" unicode="9" 
d="M553 199c0 -57.333 -23.999 -106.5 -71.999 -147.5s-106 -61.5 -174 -61.5c-67.333 0 -125.166 20.5 -173.499 61.5s-72.5 90.167 -72.5 147.5v231h164v-321c0 -22.667 8 -42 24 -58s35.333 -24 58 -24s42 8 58 24s24 35.333 24 58v577
c-30.667 -26 -72.334 -39 -125.001 -39c-135.333 0 -203 63 -203 189v399c0 57.333 24.167 106.5 72.5 147.5s106.166 61.5 173.499 61.5c68 0 126 -20.5 174 -61.5s72 -90.167 72 -147.5v-1036zM389.001 723l0.000976562 602c0 22.667 -8 42 -24 58s-35.333 24 -58 24
s-42 -8 -58 -24s-24 -35.333 -24 -58v-559c0 -52 27.333 -78 82 -78c29.333 0 56.666 11.667 81.999 35z" />
    <glyph glyph-name="colon" unicode=":" horiz-adv-x="256" 
d="M207 530h-158v246h158v-246zM207 0h-158v246h158v-246z" />
    <glyph glyph-name="semicolon" unicode=";" horiz-adv-x="256" 
d="M211 530h-158v246h158v-246zM211 213l-115 -336h-76l33 369h158v-33z" />
    <glyph glyph-name="less" unicode="&#x3c;" horiz-adv-x="553" 
d="M463 563l-402 174v41l402 174v-55l-336 -139l336 -140v-55z" />
    <glyph glyph-name="equal" unicode="=" horiz-adv-x="553" 
d="M477 823h-401v47h401v-47zM477 645h-401v47h401v-47z" />
    <glyph glyph-name="greater" unicode="&#x3e;" horiz-adv-x="553" 
d="M492 737l-402 -174v55l336 140l-336 139v55l402 -174v-41z" />
    <glyph glyph-name="question" unicode="?" horiz-adv-x="561" 
d="M512 1030c0 -67.333 -17.668 -128.666 -53.001 -183.999l-51 -80c-45.333 -70.667 -70.666 -135 -75.999 -193l-25 -266h-61l-29 307c-2.66699 29.333 -4 56 -4 80c0 46 11.667 87 35 123l51 80c32.667 51.333 49 110.666 49 177.999v250c0 54.667 -24 82 -72 82
c-47.333 0 -71 -27.333 -71 -82v-321h-164v231c0 58 22.5 107.333 67.5 148s100.833 61 167.5 61c67.333 0 123.5 -20.333 168.5 -61s67.5 -90 67.5 -148v-205zM357.999 0h-163v246h163v-246z" />
    <glyph glyph-name="at" unicode="@" horiz-adv-x="754" 
d="M692 487c0 -81.333 -39.667 -121.999 -119 -121.999c-50.667 0 -92 17 -124 51c-34.667 -34 -72.334 -51 -113.001 -51c-90 0 -135 44.333 -135 133v434c0 87.333 45 131 135 131c41.333 0 72.666 -9 93.999 -27v21h115v-586c0 -49.333 16.333 -74 49 -74
c39.333 0 59 24.667 59 74v528c0 68.667 -26.167 126.5 -78.5 173.5s-118.166 70.5 -197.499 70.5s-145.333 -23.5 -198 -70.5s-79 -104.833 -79 -173.5v-565c0 -68 26.333 -125.667 79 -173s118.667 -71 198 -71h172v-36h-172c-90.667 0 -166 27.667 -226 83
s-90 122.333 -90 201v557c0 79.333 30 146.666 90 201.999s135.333 83 226 83s166.334 -28 227.001 -84c58.667 -54.667 88 -121.667 88 -201v-508zM430 434.001v576c-16 16 -36.333 24 -61 24c-36 0 -54 -17.667 -54 -53v-537c0 -34 13.667 -51 41 -51
c29.333 0 54 13.667 74 41z" />
    <glyph glyph-name="A" unicode="A" horiz-adv-x="563" 
d="M553 0h-266v37h51l-37 416h-147l-41 -416h51v-37h-154v37h51l144 1397h164l133 -1397h51v-37zM299 489l-68 775l-75 -775h143z" />
    <glyph glyph-name="B" unicode="B" horiz-adv-x="625" 
d="M563 209c0 -57.333 -24 -106.501 -72 -147.501s-106 -61.5 -174 -61.5h-286v37h51v1360h-51v37h286c68 0 126 -20.5 174 -61.5s72 -90.167 72 -147.5v-277c0 -89.333 -47.667 -152.666 -143 -189.999c95.333 -40 143 -103.667 143 -191v-358zM399 857.999v457
c0 22.667 -8 42 -24 58s-35.333 24 -58 24h-71v-621h71c22.667 0 42 8 58 24s24 35.333 24 58zM399 118.999v538c0 22.667 -8 42 -24 58s-35.333 24 -58 24h-71v-702h71c22.667 0 42 8 58 24s24 35.333 24 58z" />
    <glyph glyph-name="C" unicode="C" 
d="M553 199c0 -57.333 -24 -106.5 -72 -147.5s-106 -61.5 -174 -61.5c-67.333 0 -125.166 20.5 -173.499 61.5s-72.5 90.167 -72.5 147.5v1036c0 57.333 24.167 106.5 72.5 147.5s106.166 61.5 173.499 61.5c68 0 126 -20.5 174 -61.5s72 -90.167 72 -147.5v-231h-164v321
c0 22.667 -8 42 -24 58s-35.333 24 -58 24s-42 -8 -58 -24s-24 -35.333 -24 -58v-1216c0 -22.667 8 -42 24 -58s35.333 -24 58 -24s42 8 58 24s24 35.333 24 58v321h164v-231z" />
    <glyph glyph-name="D" unicode="D" horiz-adv-x="625" 
d="M563 209c0 -57.333 -24 -106.5 -72 -147.5s-106 -61.5 -174 -61.5h-286v37h51v1360h-51v37h286c68 0 126 -20.5 174 -61.5s72 -90.167 72 -147.5v-1016zM399 119v1196c0 22.667 -8 42 -24 58s-35.333 24 -58 24h-71v-1360h71c22.667 0 42 8 58 24s24 35.333 24 58z" />
    <glyph glyph-name="E" unicode="E" horiz-adv-x="594" 
d="M543 0h-512v37h51v1360h-51v37h512v-430h-164v393h-133v-621h194v-37h-194v-702h133v393h164v-430z" />
    <glyph glyph-name="F" unicode="F" horiz-adv-x="563" 
d="M532 1004h-163v393h-123v-621h184v-37h-184v-702h51v-37h-266v37h51v1360h-51v37h501v-430z" />
    <glyph glyph-name="G" unicode="G" 
d="M553 199c0 -57.333 -24 -106.5 -72 -147.5s-106 -61.5 -174 -61.5c-67.333 0 -125.166 20.5 -173.499 61.5s-72.5 90.167 -72.5 147.5v1036c0 57.333 24.167 106.5 72.5 147.5s106.166 61.5 173.499 61.5c68 0 126 -20.5 174 -61.5s72 -90.167 72 -147.5v-231h-164v321
c0 22.667 -8 42 -24 58s-35.333 24 -58 24s-42 -8 -58 -24s-24 -35.333 -24 -58v-1216c0 -22.667 8 -42 24 -58s35.333 -24 58 -24s42 8 58 24s24 35.333 24 58v630h-82v37h246v-577z" />
    <glyph glyph-name="H" unicode="H" horiz-adv-x="655" 
d="M625 0h-267v37h52v702h-164v-702h51v-37h-266v37h51v1360h-51v37h266v-37h-51v-621h164v621h-52v37h267v-37h-52v-1360h52v-37z" />
    <glyph glyph-name="I" unicode="I" horiz-adv-x="336" 
d="M301 0h-266v37h51v1360h-51v37h266v-37h-51v-1360h51v-37z" />
    <glyph glyph-name="J" unicode="J" horiz-adv-x="563" 
d="M543 1397h-51v-1219c0 -52.667 -20.667 -96.667 -62 -132c-43.333 -37.333 -98 -56 -164 -56s-120.333 18.667 -163 56c-41.333 35.333 -62 79.333 -62 132v252h164v-330c0 -48.667 20.333 -73 61 -73c41.333 0 62 24.333 62 73v1297h-52v37h267v-37z" />
    <glyph glyph-name="K" unicode="K" horiz-adv-x="635" 
d="M625 0h-199l-180 696v-659h51v-37h-266v37h51v1360h-51v37h266v-37h-51v-621l225 621h-51v37h153v-37h-51l-176 -486l227 -874h52v-37z" />
    <glyph glyph-name="L" unicode="L" horiz-adv-x="563" 
d="M532 0h-501v37h51v1360h-51v37h266v-37h-51v-1360h123v393h163v-430z" />
    <glyph glyph-name="M" unicode="M" horiz-adv-x="760" 
d="M729 0h-266v37h51v977l-115 -1014h-131l-135 1014v-977h51v-37h-153v37h51v1360h-51v37h217l141 -1117l123 1117h217v-37h-51v-1360h51v-37z" />
    <glyph glyph-name="N" unicode="N" horiz-adv-x="594" 
d="M563 1397h-51v-1397h-131l-248 1116v-1079h51v-37h-153v37h51v1360h-51v37h207l223 -996v959h-51v37h153v-37z" />
    <glyph glyph-name="O" unicode="O" 
d="M553 199c0 -57.333 -24 -106.5 -72 -147.5s-106 -61.5 -174 -61.5c-67.333 0 -125.166 20.5 -173.499 61.5s-72.5 90.167 -72.5 147.5v1036c0 57.333 24.167 106.5 72.5 147.5s106.166 61.5 173.499 61.5c68 0 126 -20.5 174 -61.5s72 -90.167 72 -147.5v-1036zM389 109
v1216c0 22.667 -8 42 -24 58s-35.333 24 -58 24s-42 -8 -58 -24s-24 -35.333 -24 -58v-1216c0 -22.667 8 -42 24 -58s35.333 -24 58 -24s42 8 58 24s24 35.333 24 58z" />
    <glyph glyph-name="P" unicode="P" horiz-adv-x="604" 
d="M563 823c0 -57.333 -24 -106.5 -72 -147.5s-106 -61.5 -174 -61.5h-71v-577h51v-37h-266v37h51v1360h-51v37h286c68 0 126 -20.5 174 -61.5s72 -90.167 72 -147.5v-402zM399 733v582c0 22.667 -8 42 -24 58s-35.333 24 -58 24h-71v-746h71c22.667 0 42 8 58 24
s24 35.333 24 58z" />
    <glyph glyph-name="Q" unicode="Q" 
d="M553 199c0 -54 -21.8311 -101.167 -65.498 -141.5s-96.834 -62.833 -159.501 -67.5v-174h-41v174c-63.333 4.66699 -116.833 27.167 -160.5 67.5s-65.5 87.5 -65.5 141.5v1036c0 57.333 24.167 106.5 72.5 147.5s106.166 61.5 173.499 61.5c68 0 126 -20.5 174 -61.5
s72 -90.167 72 -147.5v-1036zM389.002 109v1216c0 22.667 -8 42 -24 58s-35.333 24 -58 24s-42 -8 -58 -24s-24 -35.333 -24 -58v-1216c0 -41.333 20.667 -68 62 -80v213h41v-213c40.667 12 61 38.667 61 80z" />
    <glyph glyph-name="R" unicode="R" horiz-adv-x="635" 
d="M614 0l-71 -0.000976562c-96 0 -144 50 -144 150v507c0 22.667 -8 42 -24 58s-35.333 24 -58 24h-71v-702h51v-37h-266v37h51v1360h-51v37h286c68 0 126 -20.5 174 -61.5s72 -90.167 72 -147.5v-277c0 -89.333 -47.667 -152.666 -143 -189.999
c95.333 -40 143 -103.667 143 -191v-475c0 -36.667 15.667 -55 47 -55h4v-37zM399 857.999v457c0 22.667 -8 42 -24 58s-35.333 24 -58 24h-71v-621h71c22.667 0 42 8 58 24s24 35.333 24 58z" />
    <glyph glyph-name="S" unicode="S" horiz-adv-x="578" 
d="M524 199c0 -58 -22.5 -107.333 -67.5 -148s-100.833 -61 -167.5 -61c-67.333 0 -123.5 20.333 -168.5 61s-67.5 90 -67.5 148v231h164v-321c0 -54.667 24 -82 72 -82c47.333 0 71 27.333 71 82v249c0 68 -16.333 127.667 -49 179l-205 319
c-35.333 55.333 -53 116.666 -53 183.999v195c0 58 22.5 107.333 67.5 148s101.167 61 168.5 61c66.667 0 122.5 -20.333 167.5 -61s67.5 -90 67.5 -148v-231h-164v321c0 54.667 -23.667 82 -71 82c-48 0 -72 -27.333 -72 -82v-240c0 -67.333 16.333 -126.666 49 -177.999
l205 -319c35.333 -55.333 53 -117 53 -185v-204z" />
    <glyph glyph-name="T" unicode="T" horiz-adv-x="676" 
d="M645 1004h-151v393h-74v-1360h51v-37h-266v37h51v1360h-74v-393h-151v430h614v-430z" />
    <glyph glyph-name="U" unicode="U" horiz-adv-x="635" 
d="M614 1397h-51v-1198c0 -57.333 -24 -106.5 -72 -147.5s-106 -61.5 -174 -61.5c-67.333 0 -125 20.5 -173 61.5s-72 90.167 -72 147.5v1198h-52v37h267v-37h-51v-1288c0 -22.667 8 -42 24 -58s35 -24 57 -24c22.667 0 42 8 58 24s24 35.333 24 58v1288h-51v37h266v-37z
" />
    <glyph glyph-name="V" unicode="V" horiz-adv-x="563" 
d="M553 1397h-51l-144 -1397h-163l-134 1397h-51v37h266v-37h-51l107 -1227l119 1227h-52v37h154v-37z" />
    <glyph glyph-name="W" unicode="W" horiz-adv-x="805" 
d="M795 1397h-52l-96 -1397h-164l-77 1182l-74 -1182h-164l-107 1397h-51v37h266v-37h-51l76 -1166l78 1203h164l80 -1203l69 1166h-51v37h154v-37z" />
    <glyph glyph-name="X" unicode="X" horiz-adv-x="543" 
d="M532 0h-276v37h51l-90 526l-108 -526h51v-37h-150v37h51l134 645l-123 715h-52v37h277v-37h-51l82 -467l96 467h-51v37h149v-37h-51l-125 -584l135 -776h51v-37z" />
    <glyph glyph-name="Y" unicode="Y" horiz-adv-x="584" 
d="M573 1397h-51l-153 -817v-543h51v-37h-266v37h51v543l-144 817h-51v37h262v-37h-51l121 -713l131 713h-51v37h151v-37z" />
    <glyph glyph-name="Z" unicode="Z" horiz-adv-x="582" 
d="M541 1397l-336 -1360h174v393h151v-430h-489v37l336 1360h-174v-393h-152v430h490v-37z" />
    <glyph glyph-name="bracketleft" unicode="[" horiz-adv-x="358" 
d="M324 0h-252v1434h252v-37h-93v-1360h93v-37z" />
    <glyph glyph-name="backslash" unicode="\" horiz-adv-x="328" 
d="M295 0h-57l-205 1434h57z" />
    <glyph glyph-name="bracketright" unicode="]" horiz-adv-x="358" 
d="M287 0h-252v37h92v1360h-92v37h252v-1434z" />
    <glyph glyph-name="asciicircum" unicode="^" horiz-adv-x="573" 
d="M481 1004h-51l-143 358l-144 -358h-51l174 430h41z" />
    <glyph glyph-name="underscore" unicode="_" horiz-adv-x="512" 
d="M512 -184h-512v45h512v-45z" />
    <glyph glyph-name="grave" unicode="`" 
d="M403 1126h-45l-213 287v21h174z" />
    <glyph glyph-name="a" unicode="a" horiz-adv-x="551" 
d="M541 0h-211v29c-30 -26 -68.333 -39 -115 -39c-113.333 0 -170 62.667 -170 188v236c0 132 78.667 198 236 198h49v344c0 54.667 -20 82 -60 82c-39.333 0 -59 -27.333 -59 -82v-217h-160v127c0 63.333 19.833 114 59.5 152s92.834 57 159.501 57
c67.333 0 120.666 -19 159.999 -57s59 -88.667 59 -152v-829h52v-37zM330 66l0.000976562 509h-47c-52 0 -78 -27 -78 -81v-385c0 -52 18.333 -78 55 -78c23.333 0 46.666 11.667 69.999 35z" />
    <glyph glyph-name="b" unicode="b" horiz-adv-x="573" 
d="M520 178c0 -125.333 -58 -188 -174 -188c-49.333 0 -89 13 -119 39v-29h-211v37h52v1360h-52v37h211v-398c30 26 69.667 39 119 39c116 0 174 -62.667 174 -188v-709zM360 109v847c0 52 -19.667 78 -59 78c-26 0 -50.667 -11.667 -74 -35v-933
c23.333 -23.333 48 -35 74 -35c39.333 0 59 26 59 78z" />
    <glyph glyph-name="c" unicode="c" horiz-adv-x="559" 
d="M514 199c0 -58.667 -21.833 -108.167 -65.5 -148.5s-98.834 -60.5 -165.501 -60.5s-122 20.167 -166 60.5s-66 89.833 -66 148.5v667c0 58.667 22 108.167 66 148.5s99.333 60.5 166 60.5s121.834 -20.167 165.501 -60.5s65.5 -89.833 65.5 -148.5v-127h-160v217
c0 54.667 -23.667 82 -71 82c-48 0 -72 -27.333 -72 -82v-847c0 -54.667 24 -82 72 -82c47.333 0 71 27.333 71 82v217h160v-127z" />
    <glyph glyph-name="d" unicode="d" horiz-adv-x="573" 
d="M557 0h-211v29c-30 -26 -69.667 -39 -119 -39c-116 0 -174 62.667 -174 188v709c0 125.333 58 188 174 188c49.333 0 89 -13 119 -39v361h-51v37h211v-1397h51v-37zM346 66v933c-23.333 23.333 -48 35 -74 35c-39.333 0 -59 -26 -59 -78v-847c0 -52 19.667 -78 59 -78
c26 0 50.667 11.667 74 35z" />
    <glyph glyph-name="e" unicode="e" horiz-adv-x="565" 
d="M514 199c0 -58.667 -21.833 -108.167 -65.5 -148.5s-98.834 -60.5 -165.501 -60.5s-122 20.167 -166 60.5s-66 89.833 -66 148.5v667c0 58.667 22 108.167 66 148.5s99.333 60.5 166 60.5s121.834 -20.167 165.501 -60.5s65.5 -89.833 65.5 -148.5v-350h-303v-407
c0 -54.667 24 -82 72 -82c47.333 0 71 27.333 71 82v217h160v-127zM354 553v403c0 54.667 -23.667 82 -71 82c-48 0 -72 -27.333 -72 -82v-403h143z" />
    <glyph glyph-name="f" unicode="f" horiz-adv-x="344" 
d="M360 1397h-51.001c-47.333 0 -71 -27.333 -71 -82v-250h81v-37h-81v-991h51v-37h-262v37h51v991h-51v37h51v160c0 58 21.833 107.333 65.5 148s98.834 61 165.501 61h51v-37z" />
    <glyph glyph-name="g" unicode="g" horiz-adv-x="573" 
d="M557 1028h-51v-1116c0 -58.667 -20.667 -108.167 -62 -148.5s-95 -60.5 -161 -60.5c-62 0 -115.833 20.5 -161.5 61.5s-68.5 90.167 -68.5 147.5v37h160v-127c0 -54.667 23.333 -82 70 -82c42 0 63 27.333 63 82v227c-30 -26 -69.667 -39 -119 -39
c-116 0 -174 63 -174 189v688c0 125.333 58 188 174 188c49.333 0 89 -13 119 -39v29h211v-37zM346 86v913c-23.333 23.333 -48 35 -74 35c-39.333 0 -59 -26 -59 -78v-827c0 -52 19.667 -78 59 -78c26 0 50.667 11.667 74 35z" />
    <glyph glyph-name="h" unicode="h" horiz-adv-x="582" 
d="M571 0h-211v956c0 52 -19.667 78 -59 78c-26 0 -50.667 -11.667 -74 -35v-962h52v-37h-263v37h52v1360h-52v37h211v-398c30 26 69.667 39 119 39c116 0 174 -62.667 174 -188v-850h51v-37z" />
    <glyph glyph-name="i" unicode="i" horiz-adv-x="311" 
d="M238 1188h-160v246h160v-246zM289 0h-262v37h51v991h-51v37h211v-1028h51v-37z" />
    <glyph glyph-name="j" unicode="j" horiz-adv-x="311" 
d="M233 1188h-159v246h159v-246zM233 -78c0 -58 -21.832 -107.333 -65.499 -148s-98.834 -61 -165.501 -61h-51v37h51c48 0 72 27.333 72 82v1196h-51v37h210v-1143z" />
    <glyph glyph-name="k" unicode="k" horiz-adv-x="575" 
d="M567 0h-207l-133 522v-485h52v-37h-263v37h52v1360h-52v37h211v-842l205 436h-53v37h156v-37h-52l-151 -328l180 -663h55v-37z" />
    <glyph glyph-name="l" unicode="l" horiz-adv-x="307" 
d="M285 0h-262v37h51v1360h-51v37h210v-1397h52v-37z" />
    <glyph glyph-name="m" unicode="m" horiz-adv-x="879" 
d="M868 0l-210.999 0.000976562v956c0 52 -19.667 78 -59 78c-30.667 0 -61.334 -16.333 -92.001 -49c12 -26.667 18 -59.334 18 -98.001v-850h51v-37h-210v956c0 52 -20 78 -60 78c-26 0 -50.667 -11.667 -74 -35v-962h52v-37h-263v37h52v991h-52v37h211v-29
c30 26 69.667 39 119 39c66 0 113.333 -20.333 142 -61c40.667 40.667 91 61 151 61c116 0 174 -62.667 174 -188v-850h51v-37z" />
    <glyph glyph-name="n" unicode="n" horiz-adv-x="586" 
d="M575 0h-210v956c0 52 -20 78 -60 78c-26 0 -50.667 -11.667 -74 -35v-962h52v-37h-263v37h52v991h-52v37h211v-29c30 26 69.667 39 119 39c116 0 174 -62.667 174 -188v-850h51v-37z" />
    <glyph glyph-name="o" unicode="o" horiz-adv-x="565" 
d="M514 199c0 -58.667 -21.833 -108.167 -65.5 -148.5s-98.834 -60.5 -165.501 -60.5s-122 20.167 -166 60.5s-66 89.833 -66 148.5v667c0 58.667 22 108.167 66 148.5s99.333 60.5 166 60.5s121.834 -20.167 165.501 -60.5s65.5 -89.833 65.5 -148.5v-667zM354 109v847
c0 54.667 -23.667 82 -71 82c-48 0 -72 -27.333 -72 -82v-847c0 -54.667 24 -82 72 -82c47.333 0 71 27.333 71 82z" />
    <glyph glyph-name="p" unicode="p" horiz-adv-x="573" 
d="M520 178c0 -125.333 -58 -188 -174 -188c-49.333 0 -89 13 -119 39v-279h52v-37h-263v37h52v1278h-52v37h211v-29c30 26 69.667 39 119 39c116 0 174 -62.667 174 -188v-709zM360 109v847c0 52 -19.667 78 -59 78c-26 0 -50.667 -11.667 -74 -35v-933
c23.333 -23.333 48 -35 74 -35c39.333 0 59 26 59 78z" />
    <glyph glyph-name="q" unicode="q" horiz-adv-x="573" 
d="M557 -287h-262v37h51v279c-30 -26 -69.667 -39 -119 -39c-116 0 -174 62.667 -174 188v709c0 125.333 58 188 174 188c49.333 0 89 -13 119 -39v29h211v-37h-51v-1278h51v-37zM346 66v933c-23.333 23.333 -48 35 -74 35c-39.333 0 -59 -26 -59 -78v-847
c0 -52 19.667 -78 59 -78c26 0 50.667 11.667 74 35z" />
    <glyph glyph-name="r" unicode="r" horiz-adv-x="535" 
d="M504 739h-160.001v217c0 52 -16.333 78 -49 78c-21.333 0 -42.666 -11.667 -63.999 -35v-962h52v-37h-263v37h52v991h-52v37h211v-29c30 26 67.667 39 113 39c106.667 0 160 -62.667 160 -188v-148z" />
    <glyph glyph-name="s" unicode="s" horiz-adv-x="532" 
d="M489 199c0 -59.333 -19.667 -108.667 -59 -148c-42 -40.667 -96 -61 -162 -61s-120 20.167 -162 60.5s-63 89.833 -63 148.5v127h160v-217c0 -54.667 21.667 -82 65 -82c41.333 0 62 27.333 62 82v157c0 66 -18.667 117.333 -56 154l-168 166c-42 41.333 -63 102 -63 182
v98c0 59.333 20.333 109 61 149s94 60 160 60s119.333 -20 160 -60s61 -89.667 61 -149v-127h-159v217c0 54.667 -20.667 82 -62 82c-40.667 0 -61 -27.333 -61 -82v-141c0 -66 18.333 -117 55 -153l168 -166c42 -42 63 -103 63 -183v-114z" />
    <glyph glyph-name="t" unicode="t" horiz-adv-x="371" 
d="M350 0h-50.999c-66.667 -0 -121.834 20.333 -165.501 61s-65.5 90 -65.5 148v819h-52v37h52v297l159 72v-369h115v-37h-115v-909c0 -54.667 24 -82 72 -82h51v-37z" />
    <glyph glyph-name="u" unicode="u" horiz-adv-x="582" 
d="M565 0h-210.999v29c-30 -26 -69.333 -39 -118 -39c-116.667 0 -175 62.667 -175 188v850h-51v37h211v-956c0 -52 20 -78 60 -78c25.333 0 49.666 11.667 72.999 35v962h-51v37h211v-1028h51v-37z" />
    <glyph glyph-name="v" unicode="v" horiz-adv-x="541" 
d="M530 1028h-51l-135 -1028h-147l-136 1028h-51v37h275v-37h-52l93 -833l100 833h-51v37h155v-37z" />
    <glyph glyph-name="w" unicode="w" horiz-adv-x="743" 
d="M733 1028h-51l-94 -1028h-156l-70 776l-51 -776h-155l-95 1028h-51v37h260v-37h-51l57 -807l58 844h151l72 -844l68 807h-52v37h160v-37z" />
    <glyph glyph-name="x" unicode="x" horiz-adv-x="522" 
d="M512 0h-270v37h51l-78 348l-100 -348h51v-37h-156v37h51l134 438l-129 553h-52v37h271v-37h-52l74 -332l96 332h-51v37h156v-37h-51l-129 -424l133 -567h51v-37z" />
    <glyph glyph-name="y" unicode="y" horiz-adv-x="578" 
d="M514 -88c0 -58.667 -20.666 -108.167 -61.999 -148.5s-95 -60.5 -161 -60.5c-62 0 -115.833 20.5 -161.5 61.5s-68.5 90.167 -68.5 147.5v37h160v-127c0 -54.667 23.333 -82 70 -82c42 0 63 27.333 63 82v227c-30 -26 -69.333 -39 -118 -39c-116.667 0 -175 63 -175 189
v829h-51v37h211v-936c0 -52 20 -78 60 -78c25.333 0 49.666 11.667 72.999 35v942h-51v37h211v-1153z" />
    <glyph glyph-name="z" unicode="z" horiz-adv-x="528" 
d="M485 0h-450v37l291 991h-131v-289h-152v326h442v-37l-290 -991h139v289h151v-326z" />
    <glyph glyph-name="braceleft" unicode="{" horiz-adv-x="430" 
d="M395 0l-30 -0.000976562c-66.667 0 -122 20.333 -166 61s-66 90 -66 148v448c0 22.667 -8 42 -24 58s-35.333 24 -58 24h-20v37h20c22.667 0 42 8 58 24s24 35.333 24 58v367c0 58 22 107.333 66 148s99.333 61 166 61h30v-37h-30c-48 0 -72 -27.333 -72 -82v-367
c0 -89.333 -47.667 -152.666 -143 -189.999c95.333 -40 143 -103.667 143 -191v-448c0 -54.667 24 -82 72 -82h30v-37z" />
    <glyph glyph-name="bar" unicode="|" horiz-adv-x="215" 
d="M133 -287h-51v1721h51v-1721z" />
    <glyph glyph-name="braceright" unicode="}" horiz-adv-x="430" 
d="M399 739l-20 0.000976562c-22.667 0 -42 -8 -58 -24s-24 -35.333 -24 -58v-448c0 -58 -21.833 -107.333 -65.5 -148s-98.834 -61 -165.501 -61h-31v37h31c47.333 0 71 27.333 71 82v448c0 87.333 48 151 144 191c-96 37.333 -144 100.666 -144 189.999v367
c0 54.667 -23.667 82 -71 82h-31v37h31c66.667 0 121.834 -20.333 165.501 -61s65.5 -90 65.5 -148v-367c0 -22.667 8 -42 24 -58s35.333 -24 58 -24h20v-37z" />
    <glyph glyph-name="asciitilde" unicode="~" 
d="M555 848l-11.999 -64c-14.667 -74 -56.334 -111 -125.001 -111c-14.667 0 -30.334 1.66699 -47.001 5l-172 37c-9.33301 2 -17.666 3 -24.999 3c-30.667 0 -57.334 -18.667 -80.001 -56l-35 6l13 63c14 74.667 56.333 112 127 112c14.667 0 30.334 -1.66699 47.001 -5
l174 -37c8 -2 15.667 -3 23 -3c29.333 0 55 18.667 77 56z" />
    <glyph glyph-name="nonbreakingspace" unicode="&#xa0;" horiz-adv-x="154" 
 />
    <glyph glyph-name="exclamdown" unicode="&#xa1;" horiz-adv-x="319" 
d="M242 1188h-164v246h164v-246zM242 0h-164v582l51 544h61l52 -544v-582z" />
    <glyph glyph-name="cent" unicode="&#xa2;" horiz-adv-x="559" 
d="M514 362c0 -54.667 -19.167 -101.5 -57.5 -140.5s-88.166 -60.833 -149.499 -65.5v-176h-49v174c-60.667 6 -110.334 28.667 -149.001 68s-58 86 -58 140v709c0 54.667 19.333 101.5 58 140.5s88.334 61.167 149.001 66.5v176h49v-176
c61.333 -5.33301 111.166 -27.5 149.499 -66.5s57.5 -85.833 57.5 -140.5v-127h-160v217c0 54.667 -23.667 82 -71 82c-48 0 -72 -27.333 -72 -82v-889c0 -54.667 24 -82 72 -82c47.333 0 71 27.333 71 82v217h160v-127z" />
    <glyph glyph-name="sterling" unicode="&#xa3;" horiz-adv-x="625" 
d="M563 0h-543v37h52v702h-52v37h52v459c0 57.333 24 106.5 72 147.5s105.667 61.5 173 61.5c68 0 126 -20.5 174 -61.5s72 -90.167 72 -147.5v-231h-164v321c0 22.667 -8 42 -24 58s-35.333 24 -58 24c-22 0 -41 -8 -57 -24s-24 -35.333 -24 -58v-549h194v-37h-194v-702
h163v393h164v-430z" />
    <glyph glyph-name="currency" unicode="&#xa4;" horiz-adv-x="1221" 
d="M1095 1099l-177 -178v-395l177 -177l-118 -118l-194 194h-330l-193 -194l-118 118l177 178v395l-177 177l118 118l194 -194h330l193 194zM754 574v302h-271v-303z" />
    <glyph glyph-name="yen" unicode="&#xa5;" horiz-adv-x="584" 
d="M573 1397h-51l-153 -817v-68h133v-37h-133v-67h133v-37h-133v-334h51v-37h-266v37h51v334h-133v37h133v67h-133v37h133v68l-144 817h-51v37h262v-37h-51l121 -713l131 713h-51v37h151v-37z" />
    <glyph glyph-name="brokenbar" unicode="&#xa6;" horiz-adv-x="215" 
d="M133 782h-51v652h51v-652zM133 -287h-51v1020h51v-1020z" />
    <glyph glyph-name="section" unicode="&#xa7;" horiz-adv-x="594" 
d="M563 698c0 -64.667 -38 -130.001 -114 -196.001l10 -8c48.667 -39.333 73 -101.666 73 -186.999v-108c0 -58 -22.5 -107.333 -67.5 -148s-100.833 -61 -167.5 -61s-122.667 20.333 -168 61s-68 90 -68 148v231h164v-321c0 -54.667 24 -82 72 -82s72 27.333 72 82v155
c0 62.667 -20.667 111.334 -62 146.001l-186 155c-60 50.667 -90 106.667 -90 168c0 65.333 38 131 114 197l-12 10c-48 40 -72 102 -72 186v109c0 58 22.667 107.333 68 148s101.333 61 168 61s122.5 -20.333 167.5 -61s67.5 -90 67.5 -148v-231h-163v321
c0 54.667 -24 82 -72 82s-72 -27.333 -72 -82v-166c0 -58.667 20 -104.334 60 -137.001l188 -156c60 -49.333 90 -105.333 90 -168zM451 607.999c0 48 -25.333 92.333 -76 133l-201 164c-20.667 -26 -31 -53.333 -31 -82c0 -47.333 21.333 -88.333 64 -123l213 -174
c20.667 26 31 53.333 31 82z" />
    <glyph glyph-name="dieresis" unicode="&#xa8;" 
d="M489 1143h-143v215h143v-215zM268 1143h-143v215h143v-215z" />
    <glyph glyph-name="copyright" unicode="&#xa9;" horiz-adv-x="754" 
d="M692 274c0 -78.667 -29.333 -145.332 -88 -199.999c-60.667 -56 -136.334 -84 -227.001 -84s-166 27.667 -226 83s-90 122.333 -90 201v885c0 79.333 30 146.666 90 201.999s135.333 83 226 83s166.334 -28 227.001 -84c58.667 -54.667 88 -121.667 88 -201v-885z
M653 270.002v893c0 68.667 -26.167 126.5 -78.5 173.5s-118.166 70.5 -197.499 70.5s-145.333 -23.5 -198 -70.5s-79 -104.833 -79 -173.5v-893c0 -68 26.333 -125.5 79 -172.5s118.667 -70.5 198 -70.5s145.166 23.5 197.499 70.5s78.5 104.5 78.5 172.5zM549 358.002
c0 -39.333 -16.833 -73.333 -50.5 -102s-74.167 -43 -121.5 -43s-87.833 14.333 -121.5 43s-50.5 62.667 -50.5 102v725c0 40 16.833 74.333 50.5 103s74.167 43 121.5 43s87.833 -14.333 121.5 -43s50.5 -63 50.5 -103v-161h-115v225c0 38 -19 57 -57 57
c-38.667 0 -58 -19 -58 -57v-852c0 -38 19.333 -57 58 -57c38 0 57 19 57 57v225h115v-162z" />
    <glyph glyph-name="ordfeminine" unicode="&#xaa;" horiz-adv-x="502" 
d="M475 608h-178.001v25c-24 -20.667 -55.333 -31 -94 -31c-98.667 0 -148 52 -148 156v157c0 109.333 67 164 201 164h41v264c0 46.667 -16.333 70 -49 70c-31.333 0 -47 -23.333 -47 -70v-165h-138v90c0 52.667 16.667 95.167 50 127.5s78.333 48.5 135 48.5
s101.834 -16.167 135.501 -48.5s50.5 -74.833 50.5 -127.5v-627h41v-33zM296.999 666v385h-37c-43.333 0 -65 -23.333 -65 -70v-281c0 -43.333 15 -65 45 -65c17.333 0 36.333 10.333 57 31z" />
    <glyph glyph-name="guillemotleft" unicode="&#xab;" 
d="M557 289h-61l-209 366v41l209 369h61l-92 -389zM303 289h-61l-209 366v41l209 369h61l-92 -389z" />
    <glyph glyph-name="logicalnot" unicode="&#xac;" horiz-adv-x="942" 
d="M823 332h-124v292h-580v124h704v-416z" />
    <glyph glyph-name="minus" unicode="&#xad;" horiz-adv-x="471" 
d="M436 735h-401v45h401v-45z" />
    <glyph glyph-name="minus" unicode="&#x2212;" horiz-adv-x="471" 
d="M436 735h-401v45h401v-45z" />
    <glyph glyph-name="registered" unicode="&#xae;" horiz-adv-x="754" 
d="M692 274c0 -78.667 -29.333 -145.332 -88 -199.999c-60.667 -56 -136.334 -84 -227.001 -84s-166 27.667 -226 83s-90 122.333 -90 201v885c0 79.333 30 146.666 90 201.999s135.333 83 226 83s166.334 -28 227.001 -84c58.667 -54.667 88 -121.667 88 -201v-885z
M653 270.002v893c0 68.667 -26.167 126.5 -78.5 173.5s-118.166 70.5 -197.499 70.5s-145.333 -23.5 -198 -70.5s-79 -104.833 -79 -173.5v-893c0 -68 26.333 -125.5 79 -172.5s118.667 -70.5 198 -70.5s145.166 23.5 197.499 70.5s78.5 104.5 78.5 172.5zM588 227.002h-49
c-67.333 0 -101 38.333 -101 115v346c0 38 -19 57 -57 57h-51v-491h37v-27h-187v27h35v950h-35v27h201c47.333 0 87.833 -14.333 121.5 -43s50.5 -63 50.5 -103v-194c0 -62.667 -33.333 -107 -100 -133c66.667 -28.667 100 -73 100 -133v-329c0 -28 10.667 -42 32 -42h3v-27
zM438 827.002v320c0 38 -19 57 -57 57h-51v-434h51c38 0 57 19 57 57z" />
    <glyph glyph-name="macron" unicode="&#xaf;" 
d="M512 1174h-410v122h410v-122z" />
    <glyph glyph-name="macron" unicode="&#x2c9;" 
d="M512 1174h-410v122h410v-122z" />
    <glyph glyph-name="degree" unicode="&#xb0;" horiz-adv-x="565" 
d="M514 813c0 -58 -21.833 -107.333 -65.5 -148s-98.834 -61 -165.501 -61s-122 20.333 -166 61s-66 90 -66 148v422c0 58 22 107.333 66 148s99.333 61 166 61s121.834 -20.333 165.501 -61s65.5 -90 65.5 -148v-422zM354 723v602c0 54.667 -23.667 82 -71 82
c-48 0 -72 -27.333 -72 -82v-602c0 -54.667 24 -82 72 -82c47.333 0 71 27.333 71 82z" />
    <glyph glyph-name="plusminus" unicode="&#xb1;" horiz-adv-x="838" 
d="M768 650h-289v-254h-119v254h-290v114h290v264h119v-264h289v-114zM772 190h-704v123h704v-123z" />
    <glyph glyph-name="twosuperior" unicode="&#xb2;" horiz-adv-x="506" 
d="M457 614l-406 0.000976562v131c0 44 15.667 85.667 47 125l170 213c30 37.333 45 77.666 45 120.999v133c0 49.333 -19.667 74 -59 74s-59 -24.667 -59 -74v-199h-144v119c0 54.667 18.833 99.334 56.5 134.001s86.5 52 146.5 52s108.833 -17.333 146.5 -52
s56.5 -79.334 56.5 -134.001v-102c0 -40.667 -15.667 -79.667 -47 -117l-170 -203c-30 -36 -45 -73.333 -45 -112v-76h118v186h144v-219z" />
    <glyph glyph-name="threesuperior" unicode="&#xb3;" horiz-adv-x="494" 
d="M446 792c0 -56.667 -18.5 -101.833 -55.5 -135.5s-85.833 -50.5 -146.5 -50.5c-62 0 -111.333 16.667 -148 50s-55 78.666 -55 135.999v107h143v-187c0 -48.667 20 -73 60 -73c39.333 0 59 24.333 59 73v232c0 48.667 -24.667 73 -74 73h-94v35h94
c49.333 0 74 24.667 74 74v211c0 49.333 -19.667 74 -59 74c-40 0 -60 -24.667 -60 -74v-188h-143v108c0 56.667 18.5 101.834 55.5 135.501s86.167 50.5 147.5 50.5c60.667 0 109.5 -17 146.5 -51s55.5 -79 55.5 -135v-59c0 -80 -43 -134.667 -129 -164
c86 -27.333 129 -81.333 129 -162v-80z" />
    <glyph glyph-name="acute" unicode="&#xb4;" 
d="M469 1413l-213 -287h-45l84 308h174v-21z" />
    <glyph glyph-name="mu" unicode="&#xb5;" horiz-adv-x="784" 
d="M676 0h-131v28c-45.333 -19.333 -106.666 -29 -183.999 -29c-62.667 0 -103 13.333 -121 40v-408h-131v1342h131v-720c0 -92.667 46 -139 138 -139c63.333 0 118.666 5.33301 165.999 16v843h132v-973z" />
    <glyph glyph-name="mu" unicode="&#x3bc;" horiz-adv-x="784" 
d="M676 0h-131v28c-45.333 -19.333 -106.666 -29 -183.999 -29c-62.667 0 -103 13.333 -121 40v-408h-131v1342h131v-720c0 -92.667 46 -139 138 -139c63.333 0 118.666 5.33301 165.999 16v843h132v-973z" />
    <glyph glyph-name="paragraph" unicode="&#xb6;" horiz-adv-x="604" 
d="M573 0h-133v1397h-41v-1397h-92v37h51v577h-71c-68 0 -126 20.5 -174 61.5s-72 90.167 -72 147.5v402c0 57.333 24 106.5 72 147.5s106 61.5 174 61.5h286v-37h-51v-1360h51v-37zM358 651v746h-71c-22.667 0 -42 -8 -58 -24s-24 -35.333 -24 -58v-582
c0 -22.667 8 -42 24 -58s35.333 -24 58 -24h71z" />
    <glyph glyph-name="periodcentered" unicode="&#xb7;" horiz-adv-x="256" 
d="M207 635h-158v246h158v-246z" />
    <glyph glyph-name="periodcentered" unicode="&#x2219;" horiz-adv-x="256" 
d="M207 635h-158v246h158v-246z" />
    <glyph glyph-name="cedilla" unicode="&#xb8;" 
d="M434 -172c0 -76.667 -41.667 -115 -125 -115h-110v31h39c42 0 63 28 63 84s-21 84 -63 84h-9v27l35 61h45l-35 -57h35c83.333 0 125 -38.333 125 -115z" />
    <glyph glyph-name="onesuperior" unicode="&#xb9;" horiz-adv-x="326" 
d="M297 614h-262v37h51v745h-51v37h211v-782h51v-37z" />
    <glyph glyph-name="ordmasculine" unicode="&#xba;" horiz-adv-x="524" 
d="M459 776c0 -47.333 -18.833 -88.166 -56.5 -122.499s-84.5 -51.5 -140.5 -51.5c-55.333 0 -101.833 17.167 -139.5 51.5s-56.5 75.166 -56.5 122.499v494c0 47.333 18.833 88.166 56.5 122.499s84.167 51.5 139.5 51.5c56 0 102.833 -17.167 140.5 -51.5
s56.5 -75.166 56.5 -122.499v-494zM322 700v646c0 44.667 -20 67 -60 67c-38 0 -57 -22.333 -57 -67v-646c0 -44.667 19 -67 57 -67c40 0 60 22.333 60 67z" />
    <glyph glyph-name="guillemotright" unicode="&#xbb;" 
d="M582 655l-209 -366h-62l92 387l-92 389h62l209 -369v-41zM328 655l-209 -366h-62l93 387l-93 389h62l209 -369v-41z" />
    <glyph glyph-name="onequarter" unicode="&#xbc;" horiz-adv-x="1024" 
d="M725 1434l-460 -1434h-48l461 1434h47zM297 614h-262v37h51v745h-51v37h211v-782h51v-37zM939 0h-237v33h47v190h-222v39l222 557h143v-557h47v-39h-47v-190h47v-33zM749 262v461l-179 -461h179z" />
    <glyph glyph-name="onehalf" unicode="&#xbd;" horiz-adv-x="1024" 
d="M704 1434l-460 -1434h-48l461 1434h47zM297 614h-262v37h51v745h-51v37h211v-782h51v-37zM969 0l-406 0.000976562v131c0 44 15.667 85.667 47 125l170 213c30 37.333 45 77.666 45 120.999v133c0 49.333 -19.667 74 -59 74s-59 -24.667 -59 -74v-199h-144v119
c0 54.667 18.833 99.334 56.5 134.001s86.5 52 146.5 52s108.833 -17.333 146.5 -52s56.5 -79.334 56.5 -134.001v-102c0 -40.667 -15.667 -79.667 -47 -117l-170 -203c-30 -36 -45 -73.333 -45 -112v-76h118v186h144v-219z" />
    <glyph glyph-name="threequarters" unicode="&#xbe;" horiz-adv-x="1024" 
d="M807 1434l-460 -1434h-48l461 1434h47zM446 792c0 -56.667 -18.5 -101.833 -55.5 -135.5s-85.833 -50.5 -146.5 -50.5c-62 0 -111.333 16.667 -148 50s-55 78.666 -55 135.999v107h143v-187c0 -48.667 20 -73 60 -73c39.333 0 59 24.333 59 73v232
c0 48.667 -24.667 73 -74 73h-94v35h94c49.333 0 74 24.667 74 74v211c0 49.333 -19.667 74 -59 74c-40 0 -60 -24.667 -60 -74v-188h-143v108c0 56.667 18.5 101.834 55.5 135.501s86.167 50.5 147.5 50.5c60.667 0 109.5 -17 146.5 -51s55.5 -79 55.5 -135v-59
c0 -80 -43 -134.667 -129 -164c86 -27.333 129 -81.333 129 -162v-80zM969 0.000976562h-237v33h47v190h-222v39l222 557h143v-557h47v-39h-47v-190h47v-33zM779 262.001v461l-179 -461h179z" />
    <glyph glyph-name="questiondown" unicode="&#xbf;" horiz-adv-x="561" 
d="M367 1188h-164v246h164v-246zM520 199c0 -58 -22.5 -107.333 -67.5 -148s-100.833 -61 -167.5 -61c-67.333 0 -123.5 20.333 -168.5 61s-67.5 90 -67.5 148v204c0 68 17.667 129.667 53 185l52 80c44.667 70 69.667 134 75 192l25 266h61l29 -307
c2.66699 -29.333 4 -56 4 -80c0 -45.333 -11.667 -86.333 -35 -123l-51 -79c-32.667 -51.333 -49 -111 -49 -179v-249c0 -54.667 24 -82 72 -82c47.333 0 71 27.333 71 82v321h164v-231z" />
    <glyph glyph-name="Agrave" unicode="&#xc0;" horiz-adv-x="563" 
d="M553 0h-266v37h51l-37 416h-147l-41 -416h51v-37h-154v37h51l144 1397h164l133 -1397h51v-37zM299 489l-68 775l-75 -775h143zM317 1484h-45l-213 287v21h174z" />
    <glyph glyph-name="Aacute" unicode="&#xc1;" horiz-adv-x="563" 
d="M553 0h-266v37h51l-37 416h-147l-41 -416h51v-37h-154v37h51l144 1397h164l133 -1397h51v-37zM299 489l-68 775l-75 -775h143zM506 1771l-213 -287h-45l84 308h174v-21z" />
    <glyph glyph-name="Acircumflex" unicode="&#xc2;" horiz-adv-x="563" 
d="M553 0h-266v37h51l-37 416h-147l-41 -416h51v-37h-154v37h51l144 1397h164l133 -1397h51v-37zM299 489l-68 775l-75 -775h143zM488 1478h-45l-150 146l-149 -146h-47l155 308h78z" />
    <glyph glyph-name="Atilde" unicode="&#xc3;" horiz-adv-x="563" 
d="M553 0h-266v37h51l-37 416h-147l-41 -416h51v-37h-154v37h51l144 1397h164l133 -1397h51v-37zM299 489l-68 775l-75 -775h143zM525 1667l-13.002 -59c-15.333 -75.333 -55.666 -113 -120.999 -113c-16 0 -33 2 -51 6l-155 37c-10 2.66699 -19 4 -27 4
c-30 0 -54.667 -19 -74 -57l-34 10l12 60c15.333 74.667 56 112 122 112c15.333 0 32 -2 50 -6l156 -37c9.33301 -2 18 -3 26 -3c30.667 0 55.334 18.667 74.001 56z" />
    <glyph glyph-name="Adieresis" unicode="&#xc4;" horiz-adv-x="563" 
d="M553 0h-266v37h51l-37 416h-147l-41 -416h51v-37h-154v37h51l144 1397h164l133 -1397h51v-37zM299 489l-68 775l-75 -775h143zM471 1485h-143v215h143v-215zM250 1485h-143v215h143v-215z" />
    <glyph glyph-name="Aring" unicode="&#xc5;" horiz-adv-x="563" 
d="M553 0h-266v37h51l-37 416h-147l-41 -416h51v-37h-154v37h51l144 1397h164l133 -1397h51v-37zM299 489l-68 775l-75 -775h143zM482 1638c0 -102.667 -65 -154 -195 -154c-129.333 0 -194 51.333 -194 154s64.667 154 194 154c130 0 195 -51.333 195 -154zM340 1577v122
c0 41.333 -17.667 62 -53 62s-53 -20.667 -53 -62v-122c0 -41.333 17.667 -62 53 -62s53 20.667 53 62z" />
    <glyph glyph-name="AE" unicode="&#xc6;" horiz-adv-x="829" 
d="M778 0h-512v37h51v416h-155l-70 -416h51v-37h-143v37h41l227 1360h-45v37h555v-430h-164v393h-133v-621h195v-37h-195v-702h133v393h164v-430zM317 489v914l-149 -914h149z" />
    <glyph glyph-name="Ccedilla" unicode="&#xc7;" 
d="M553 199c0 -57.333 -24 -106.5 -72 -147.5s-106 -61.5 -174 -61.5c-67.333 0 -125.166 20.5 -173.499 61.5s-72.5 90.167 -72.5 147.5v1036c0 57.333 24.167 106.5 72.5 147.5s106.166 61.5 173.499 61.5c68 0 126 -20.5 174 -61.5s72 -90.167 72 -147.5v-231h-164v321
c0 22.667 -8 42 -24 58s-35.333 24 -58 24s-42 -8 -58 -24s-24 -35.333 -24 -58v-1216c0 -22.667 8 -42 24 -58s35.333 -24 58 -24s42 8 58 24s24 35.333 24 58v321h164v-231zM440 -172c0 -76.667 -41.667 -115 -125 -115h-110v31h39c42 0 63 28 63 84s-21 84 -63 84h-9v27
l35 61h45l-35 -57h35c83.333 0 125 -38.333 125 -115z" />
    <glyph glyph-name="Egrave" unicode="&#xc8;" horiz-adv-x="594" 
d="M543 0h-512v37h51v1360h-51v37h512v-430h-164v393h-133v-621h194v-37h-194v-702h133v393h164v-430zM350 1484h-45l-213 287v21h174z" />
    <glyph glyph-name="Eacute" unicode="&#xc9;" horiz-adv-x="594" 
d="M543 0h-512v37h51v1360h-51v37h512v-430h-164v393h-133v-621h194v-37h-194v-702h133v393h164v-430zM512 1771l-213 -287h-45l84 308h174v-21z" />
    <glyph glyph-name="Ecircumflex" unicode="&#xca;" horiz-adv-x="594" 
d="M543 0h-512v37h51v1360h-51v37h512v-430h-164v393h-133v-621h194v-37h-194v-702h133v393h164v-430zM496 1484h-45l-150 146l-149 -146h-47l155 308h78z" />
    <glyph glyph-name="Edieresis" unicode="&#xcb;" horiz-adv-x="594" 
d="M543 0h-512v37h51v1360h-51v37h512v-430h-164v393h-133v-621h194v-37h-194v-702h133v393h164v-430zM487 1485h-143v215h143v-215zM266 1485h-143v215h143v-215z" />
    <glyph glyph-name="Igrave" unicode="&#xcc;" horiz-adv-x="336" 
d="M301 0h-266v37h51v1360h-51v37h266v-37h-51v-1360h51v-37zM198 1484h-45l-213 287v21h174z" />
    <glyph glyph-name="Iacute" unicode="&#xcd;" horiz-adv-x="336" 
d="M301 0h-266v37h51v1360h-51v37h266v-37h-51v-1360h51v-37zM389 1771l-213 -287h-45l84 308h174v-21z" />
    <glyph glyph-name="Icircumflex" unicode="&#xce;" horiz-adv-x="336" 
d="M301 0h-266v37h51v1360h-51v37h266v-37h-51v-1360h51v-37zM365 1484h-45l-150 146l-149 -146h-47l155 308h78z" />
    <glyph glyph-name="Idieresis" unicode="&#xcf;" horiz-adv-x="336" 
d="M301 0h-266v37h51v1360h-51v37h266v-37h-51v-1360h51v-37zM348 1485h-143v215h143v-215zM127 1485h-143v215h143v-215z" />
    <glyph glyph-name="Eth" unicode="&#xd0;" horiz-adv-x="625" 
d="M563 209c0 -57.333 -24 -106.5 -72 -147.5s-106 -61.5 -174 -61.5h-286v37h51v702h-51v37h51v621h-51v37h286c68 0 126 -20.5 174 -61.5s72 -90.167 72 -147.5v-1016zM399 119v1196c0 22.667 -8 42 -24 58s-35.333 24 -58 24h-71v-621h51v-37h-51v-702h71
c22.667 0 42 8 58 24s24 35.333 24 58z" />
    <glyph glyph-name="Ntilde" unicode="&#xd1;" horiz-adv-x="594" 
d="M563 1397h-51v-1397h-131l-248 1116v-1079h51v-37h-153v37h51v1360h-51v37h207l223 -996v959h-51v37h153v-37zM549 1667l-13.002 -59c-15.333 -75.333 -55.666 -113 -120.999 -113c-16 0 -33 2 -51 6l-155 37c-10 2.66699 -19 4 -27 4c-30 0 -54.667 -19 -74 -57l-34 10
l12 60c15.333 74.667 56 112 122 112c15.333 0 32 -2 50 -6l156 -37c9.33301 -2 18 -3 26 -3c30.667 0 55.334 18.667 74.001 56z" />
    <glyph glyph-name="Ograve" unicode="&#xd2;" 
d="M553 199c0 -57.333 -24 -106.5 -72 -147.5s-106 -61.5 -174 -61.5c-67.333 0 -125.166 20.5 -173.499 61.5s-72.5 90.167 -72.5 147.5v1036c0 57.333 24.167 106.5 72.5 147.5s106.166 61.5 173.499 61.5c68 0 126 -20.5 174 -61.5s72 -90.167 72 -147.5v-1036zM389 109
v1216c0 22.667 -8 42 -24 58s-35.333 24 -58 24s-42 -8 -58 -24s-24 -35.333 -24 -58v-1216c0 -22.667 8 -42 24 -58s35.333 -24 58 -24s42 8 58 24s24 35.333 24 58zM342 1484h-45l-213 287v21h174z" />
    <glyph glyph-name="Oacute" unicode="&#xd3;" 
d="M553 199c0 -57.333 -24 -106.5 -72 -147.5s-106 -61.5 -174 -61.5c-67.333 0 -125.166 20.5 -173.499 61.5s-72.5 90.167 -72.5 147.5v1036c0 57.333 24.167 106.5 72.5 147.5s106.166 61.5 173.499 61.5c68 0 126 -20.5 174 -61.5s72 -90.167 72 -147.5v-1036zM389 109
v1216c0 22.667 -8 42 -24 58s-35.333 24 -58 24s-42 -8 -58 -24s-24 -35.333 -24 -58v-1216c0 -22.667 8 -42 24 -58s35.333 -24 58 -24s42 8 58 24s24 35.333 24 58zM528 1771l-213 -287h-45l84 308h174v-21z" />
    <glyph glyph-name="Ocircumflex" unicode="&#xd4;" 
d="M553 199c0 -57.333 -24 -106.5 -72 -147.5s-106 -61.5 -174 -61.5c-67.333 0 -125.166 20.5 -173.499 61.5s-72.5 90.167 -72.5 147.5v1036c0 57.333 24.167 106.5 72.5 147.5s106.166 61.5 173.499 61.5c68 0 126 -20.5 174 -61.5s72 -90.167 72 -147.5v-1036zM389 109
v1216c0 22.667 -8 42 -24 58s-35.333 24 -58 24s-42 -8 -58 -24s-24 -35.333 -24 -58v-1216c0 -22.667 8 -42 24 -58s35.333 -24 58 -24s42 8 58 24s24 35.333 24 58zM504 1484h-45l-150 146l-149 -146h-47l155 308h78z" />
    <glyph glyph-name="Otilde" unicode="&#xd5;" 
d="M553 199c0 -57.333 -24 -106.5 -72 -147.5s-106 -61.5 -174 -61.5c-67.333 0 -125.166 20.5 -173.499 61.5s-72.5 90.167 -72.5 147.5v1036c0 57.333 24.167 106.5 72.5 147.5s106.166 61.5 173.499 61.5c68 0 126 -20.5 174 -61.5s72 -90.167 72 -147.5v-1036zM389 109
v1216c0 22.667 -8 42 -24 58s-35.333 24 -58 24s-42 -8 -58 -24s-24 -35.333 -24 -58v-1216c0 -22.667 8 -42 24 -58s35.333 -24 58 -24s42 8 58 24s24 35.333 24 58zM551 1667l-13.002 -59c-15.333 -75.333 -55.666 -113 -120.999 -113c-16 0 -33 2 -51 6l-155 37
c-10 2.66699 -19 4 -27 4c-30 0 -54.667 -19 -74 -57l-34 10l12 60c15.333 74.667 56 112 122 112c15.333 0 32 -2 50 -6l156 -37c9.33301 -2 18 -3 26 -3c30.667 0 55.334 18.667 74.001 56z" />
    <glyph glyph-name="Odieresis" unicode="&#xd6;" 
d="M553 199c0 -57.333 -24 -106.5 -72 -147.5s-106 -61.5 -174 -61.5c-67.333 0 -125.166 20.5 -173.499 61.5s-72.5 90.167 -72.5 147.5v1036c0 57.333 24.167 106.5 72.5 147.5s106.166 61.5 173.499 61.5c68 0 126 -20.5 174 -61.5s72 -90.167 72 -147.5v-1036zM389 109
v1216c0 22.667 -8 42 -24 58s-35.333 24 -58 24s-42 -8 -58 -24s-24 -35.333 -24 -58v-1216c0 -22.667 8 -42 24 -58s35.333 -24 58 -24s42 8 58 24s24 35.333 24 58zM491 1485h-143v215h143v-215zM270 1485h-143v215h143v-215z" />
    <glyph glyph-name="multiply" unicode="&#xd7;" horiz-adv-x="471" 
d="M416 612l-35 -34l-145 145l-146 -145l-35 34l146 146l-146 145l35 35l146 -145l145 145l35 -35l-146 -145z" />
    <glyph glyph-name="Oslash" unicode="&#xd8;" 
d="M553 199c0 -57.333 -23.999 -106.5 -71.999 -147.5s-106 -61.5 -174 -61.5c-44.667 0 -87.667 10 -129 30l-37 -143h-49l45 172c-50.667 39.333 -76 89.333 -76 150v1036c0 57.333 24.167 106.5 72.5 147.5s106.166 61.5 173.499 61.5c45.333 0 88.333 -10.333 129 -31
l37 143h49l-45 -172c50.667 -39.333 76 -89 76 -149v-1036zM389.001 1212v113c0 22.667 -8 42 -24 58s-35.333 24 -58 24s-42 -8 -58 -24s-24 -35.333 -24 -58v-876zM389.001 109v874l-164 -762v-112c0 -22.667 8 -42 24 -58s35.333 -24 58 -24s42 8 58 24s24 35.333 24 58z
" />
    <glyph glyph-name="Ugrave" unicode="&#xd9;" horiz-adv-x="635" 
d="M614 1397h-51v-1198c0 -57.333 -24 -106.5 -72 -147.5s-106 -61.5 -174 -61.5c-67.333 0 -125 20.5 -173 61.5s-72 90.167 -72 147.5v1198h-52v37h267v-37h-51v-1288c0 -22.667 8 -42 24 -58s35 -24 57 -24c22.667 0 42 8 58 24s24 35.333 24 58v1288h-51v37h266v-37z
M348 1484h-45l-213 287v21h174z" />
    <glyph glyph-name="Uacute" unicode="&#xda;" horiz-adv-x="635" 
d="M614 1397h-51v-1198c0 -57.333 -24 -106.5 -72 -147.5s-106 -61.5 -174 -61.5c-67.333 0 -125 20.5 -173 61.5s-72 90.167 -72 147.5v1198h-52v37h267v-37h-51v-1288c0 -22.667 8 -42 24 -58s35 -24 57 -24c22.667 0 42 8 58 24s24 35.333 24 58v1288h-51v37h266v-37z
M497 1771l-213 -287h-45l84 308h174v-21z" />
    <glyph glyph-name="Ucircumflex" unicode="&#xdb;" horiz-adv-x="635" 
d="M614 1397h-51v-1198c0 -57.333 -24 -106.5 -72 -147.5s-106 -61.5 -174 -61.5c-67.333 0 -125 20.5 -173 61.5s-72 90.167 -72 147.5v1198h-52v37h267v-37h-51v-1288c0 -22.667 8 -42 24 -58s35 -24 57 -24c22.667 0 42 8 58 24s24 35.333 24 58v1288h-51v37h266v-37z
M514 1484h-45l-150 146l-149 -146h-47l155 308h78z" />
    <glyph glyph-name="Udieresis" unicode="&#xdc;" horiz-adv-x="635" 
d="M614 1397h-51v-1198c0 -57.333 -24 -106.5 -72 -147.5s-106 -61.5 -174 -61.5c-67.333 0 -125 20.5 -173 61.5s-72 90.167 -72 147.5v1198h-52v37h267v-37h-51v-1288c0 -22.667 8 -42 24 -58s35 -24 57 -24c22.667 0 42 8 58 24s24 35.333 24 58v1288h-51v37h266v-37z
M501 1485h-143v215h143v-215zM280 1485h-143v215h143v-215z" />
    <glyph glyph-name="Yacute" unicode="&#xdd;" horiz-adv-x="584" 
d="M573 1397h-51l-153 -817v-543h51v-37h-266v37h51v543l-144 817h-51v37h262v-37h-51l121 -713l131 713h-51v37h151v-37zM520 1771l-213 -287h-45l84 308h174v-21z" />
    <glyph glyph-name="Thorn" unicode="&#xde;" horiz-adv-x="604" 
d="M563 547c0 -57.333 -24 -106.5 -72 -147.5s-106 -61.5 -174 -61.5h-71v-301h51v-37h-266v37h51v1360h-51v37h266v-37h-51v-240h71c68 0 126 -20.5 174 -61.5s72 -90.167 72 -147.5v-401zM399 457v581c0 22.667 -8 42 -24 58s-35.333 24 -58 24h-71v-745h71
c22.667 0 42 8 58 24s24 35.333 24 58z" />
    <glyph glyph-name="germandbls" unicode="&#xdf;" horiz-adv-x="573" 
d="M522 209c0 -58 -21.832 -107.334 -65.499 -148.001s-98.834 -61 -165.501 -61h-21v37h21c47.333 0 71 27.333 71 82v538c0 22.667 -8 42 -24 58s-35 24 -57 24h-11v37h11c22 0 41 8 57 24s24 35.333 24 58v467c0 54.667 -22.333 82 -67 82c-45.333 0 -68 -27.333 -68 -82
v-1325h-211v37h52v1198c0 58.667 21.167 108.167 63.5 148.5s96.833 60.5 163.5 60.5s121.167 -20.167 163.5 -60.5s63.5 -89.833 63.5 -148.5v-287c0 -89.333 -47.667 -152.666 -143 -189.999c95.333 -40 143 -103.667 143 -191v-358z" />
    <glyph glyph-name="agrave" unicode="&#xe0;" horiz-adv-x="551" 
d="M541 0h-211v29c-30 -26 -68.333 -39 -115 -39c-113.333 0 -170 62.667 -170 188v236c0 132 78.667 198 236 198h49v344c0 54.667 -20 82 -60 82c-39.333 0 -59 -27.333 -59 -82v-217h-160v127c0 63.333 19.833 114 59.5 152s92.834 57 159.501 57
c67.333 0 120.666 -19 159.999 -57s59 -88.667 59 -152v-829h52v-37zM330 66l0.000976562 509h-47c-52 0 -78 -27 -78 -81v-385c0 -52 18.333 -78 55 -78c23.333 0 46.666 11.667 69.999 35zM315.001 1126h-45l-213 287v21h174z" />
    <glyph glyph-name="aacute" unicode="&#xe1;" horiz-adv-x="551" 
d="M541 0h-211v29c-30 -26 -68.333 -39 -115 -39c-113.333 0 -170 62.667 -170 188v236c0 132 78.667 198 236 198h49v344c0 54.667 -20 82 -60 82c-39.333 0 -59 -27.333 -59 -82v-217h-160v127c0 63.333 19.833 114 59.5 152s92.834 57 159.501 57
c67.333 0 120.666 -19 159.999 -57s59 -88.667 59 -152v-829h52v-37zM330 66l0.000976562 509h-47c-52 0 -78 -27 -78 -81v-385c0 -52 18.333 -78 55 -78c23.333 0 46.666 11.667 69.999 35zM492.001 1413l-213 -287h-45l84 308h174v-21z" />
    <glyph glyph-name="acircumflex" unicode="&#xe2;" horiz-adv-x="551" 
d="M541 0h-211v29c-30 -26 -68.333 -39 -115 -39c-113.333 0 -170 62.667 -170 188v236c0 132 78.667 198 236 198h49v344c0 54.667 -20 82 -60 82c-39.333 0 -59 -27.333 -59 -82v-217h-160v127c0 63.333 19.833 114 59.5 152s92.834 57 159.501 57
c67.333 0 120.666 -19 159.999 -57s59 -88.667 59 -152v-829h52v-37zM330 66l0.000976562 509h-47c-52 0 -78 -27 -78 -81v-385c0 -52 18.333 -78 55 -78c23.333 0 46.666 11.667 69.999 35zM467.001 1126h-45l-150 146l-149 -146h-47l155 308h78z" />
    <glyph glyph-name="atilde" unicode="&#xe3;" horiz-adv-x="551" 
d="M541 0h-211v29c-30 -26 -68.333 -39 -115 -39c-113.333 0 -170 62.667 -170 188v236c0 132 78.667 198 236 198h49v344c0 54.667 -20 82 -60 82c-39.333 0 -59 -27.333 -59 -82v-217h-160v127c0 63.333 19.833 114 59.5 152s92.834 57 159.501 57
c67.333 0 120.666 -19 159.999 -57s59 -88.667 59 -152v-829h52v-37zM330 66l0.000976562 509h-47c-52 0 -78 -27 -78 -81v-385c0 -52 18.333 -78 55 -78c23.333 0 46.666 11.667 69.999 35zM525.001 1331l-13.002 -59c-15.333 -75.333 -55.666 -113 -120.999 -113
c-16 0 -33 2 -51 6l-155 37c-10 2.66699 -19 4 -27 4c-30 0 -54.667 -19 -74 -57l-34 10l12 60c15.333 74.667 56 112 122 112c15.333 0 32 -2 50 -6l156 -37c9.33301 -2 18 -3 26 -3c30.667 0 55.334 18.667 74.001 56z" />
    <glyph glyph-name="adieresis" unicode="&#xe4;" horiz-adv-x="551" 
d="M541 0h-211v29c-30 -26 -68.333 -39 -115 -39c-113.333 0 -170 62.667 -170 188v236c0 132 78.667 198 236 198h49v344c0 54.667 -20 82 -60 82c-39.333 0 -59 -27.333 -59 -82v-217h-160v127c0 63.333 19.833 114 59.5 152s92.834 57 159.501 57
c67.333 0 120.666 -19 159.999 -57s59 -88.667 59 -152v-829h52v-37zM330 66l0.000976562 509h-47c-52 0 -78 -27 -78 -81v-385c0 -52 18.333 -78 55 -78c23.333 0 46.666 11.667 69.999 35zM460.001 1143h-143v215h143v-215zM239.001 1143h-143v215h143v-215z" />
    <glyph glyph-name="aring" unicode="&#xe5;" horiz-adv-x="551" 
d="M541 0h-211v29c-30 -26 -68.333 -39 -115 -39c-113.333 0 -170 62.667 -170 188v236c0 132 78.667 198 236 198h49v344c0 54.667 -20 82 -60 82c-39.333 0 -59 -27.333 -59 -82v-217h-160v127c0 63.333 19.833 114 59.5 152s92.834 57 159.501 57
c67.333 0 120.666 -19 159.999 -57s59 -88.667 59 -152v-829h52v-37zM330 66l0.000976562 509h-47c-52 0 -78 -27 -78 -81v-385c0 -52 18.333 -78 55 -78c23.333 0 46.666 11.667 69.999 35zM471.001 1280c0 -102.667 -65 -154 -195 -154c-129.333 0 -194 51.333 -194 154
s64.667 154 194 154c130 0 195 -51.333 195 -154zM329.001 1219v122c0 41.333 -17.667 62 -53 62s-53 -20.667 -53 -62v-122c0 -41.333 17.667 -62 53 -62s53 20.667 53 62z" />
    <glyph glyph-name="ae" unicode="&#xe6;" horiz-adv-x="844" 
d="M793 199c0 -58.667 -22.002 -108.167 -66.002 -148.5s-99.333 -60.5 -166 -60.5c-50.667 0 -101 19.667 -151 59c-42.667 -39.333 -90.667 -59 -144 -59c-67.333 0 -121 19 -161 57s-60 88.667 -60 152v215c0 132 78.667 198 236 198h49v344c0 54.667 -20 82 -60 82
c-39.333 0 -59 -27.333 -59 -82v-217h-160v127c0 63.333 19.833 114 59.5 152s92.834 57 159.501 57c58.667 0 107.334 -15 146.001 -45c40.667 30 89 45 145 45c66.667 0 122 -20.167 166 -60.5s66 -89.833 66 -148.5v-350h-304v-407c0 -54.667 24 -82 72 -82
s72 27.333 72 82v217h160v-127zM632.998 553v403c0 54.667 -24 82 -72 82s-72 -27.333 -72 -82v-403h144zM329.998 109v466h-47c-52 0 -78 -27 -78 -81v-385c0 -54.667 20.333 -82 61 -82c42.667 0 64 27.333 64 82z" />
    <glyph glyph-name="ccedilla" unicode="&#xe7;" horiz-adv-x="559" 
d="M514 199c0 -58.667 -21.833 -108.167 -65.5 -148.5s-98.834 -60.5 -165.501 -60.5s-122 20.167 -166 60.5s-66 89.833 -66 148.5v667c0 58.667 22 108.167 66 148.5s99.333 60.5 166 60.5s121.834 -20.167 165.501 -60.5s65.5 -89.833 65.5 -148.5v-127h-160v217
c0 54.667 -23.667 82 -71 82c-48 0 -72 -27.333 -72 -82v-847c0 -54.667 24 -82 72 -82c47.333 0 71 27.333 71 82v217h160v-127zM418 -172c0 -76.667 -41.667 -115 -125 -115h-110v31h39c42 0 63 28 63 84s-21 84 -63 84h-9v27l35 61h45l-35 -57h35
c83.333 0 125 -38.333 125 -115z" />
    <glyph glyph-name="egrave" unicode="&#xe8;" horiz-adv-x="565" 
d="M514 199c0 -58.667 -21.833 -108.167 -65.5 -148.5s-98.834 -60.5 -165.501 -60.5s-122 20.167 -166 60.5s-66 89.833 -66 148.5v667c0 58.667 22 108.167 66 148.5s99.333 60.5 166 60.5s121.834 -20.167 165.501 -60.5s65.5 -89.833 65.5 -148.5v-350h-303v-407
c0 -54.667 24 -82 72 -82c47.333 0 71 27.333 71 82v217h160v-127zM354 553v403c0 54.667 -23.667 82 -71 82c-48 0 -72 -27.333 -72 -82v-403h143zM325 1126h-45l-213 287v21h174z" />
    <glyph glyph-name="eacute" unicode="&#xe9;" horiz-adv-x="565" 
d="M514 199c0 -58.667 -21.833 -108.167 -65.5 -148.5s-98.834 -60.5 -165.501 -60.5s-122 20.167 -166 60.5s-66 89.833 -66 148.5v667c0 58.667 22 108.167 66 148.5s99.333 60.5 166 60.5s121.834 -20.167 165.501 -60.5s65.5 -89.833 65.5 -148.5v-350h-303v-407
c0 -54.667 24 -82 72 -82c47.333 0 71 27.333 71 82v217h160v-127zM354 553v403c0 54.667 -23.667 82 -71 82c-48 0 -72 -27.333 -72 -82v-403h143zM500 1413l-213 -287h-45l84 308h174v-21z" />
    <glyph glyph-name="ecircumflex" unicode="&#xea;" horiz-adv-x="565" 
d="M514 199c0 -58.667 -21.833 -108.167 -65.5 -148.5s-98.834 -60.5 -165.501 -60.5s-122 20.167 -166 60.5s-66 89.833 -66 148.5v667c0 58.667 22 108.167 66 148.5s99.333 60.5 166 60.5s121.834 -20.167 165.501 -60.5s65.5 -89.833 65.5 -148.5v-350h-303v-407
c0 -54.667 24 -82 72 -82c47.333 0 71 27.333 71 82v217h160v-127zM354 553v403c0 54.667 -23.667 82 -71 82c-48 0 -72 -27.333 -72 -82v-403h143zM477 1126h-45l-150 146l-149 -146h-47l155 308h78z" />
    <glyph glyph-name="edieresis" unicode="&#xeb;" horiz-adv-x="565" 
d="M514 199c0 -58.667 -21.833 -108.167 -65.5 -148.5s-98.834 -60.5 -165.501 -60.5s-122 20.167 -166 60.5s-66 89.833 -66 148.5v667c0 58.667 22 108.167 66 148.5s99.333 60.5 166 60.5s121.834 -20.167 165.501 -60.5s65.5 -89.833 65.5 -148.5v-350h-303v-407
c0 -54.667 24 -82 72 -82c47.333 0 71 27.333 71 82v217h160v-127zM354 553v403c0 54.667 -23.667 82 -71 82c-48 0 -72 -27.333 -72 -82v-403h143zM464 1143h-143v215h143v-215zM243 1143h-143v215h143v-215z" />
    <glyph glyph-name="igrave" unicode="&#xec;" horiz-adv-x="311" 
d="M289 0h-262v37h51v991h-51v37h211v-1028h51v-37zM182 1126h-45l-213 287v21h174z" />
    <glyph glyph-name="iacute" unicode="&#xed;" horiz-adv-x="311" 
d="M289 0h-262v37h51v991h-51v37h211v-1028h51v-37zM371 1413l-213 -287h-45l84 308h174v-21z" />
    <glyph glyph-name="icircumflex" unicode="&#xee;" horiz-adv-x="311" 
d="M289 0h-262v37h51v991h-51v37h211v-1028h51v-37zM348 1126h-45l-150 146l-149 -146h-47l155 308h78z" />
    <glyph glyph-name="idieresis" unicode="&#xef;" horiz-adv-x="311" 
d="M289 0h-262v37h51v991h-51v37h211v-1028h51v-37zM335 1143h-143v215h143v-215zM114 1143h-143v215h143v-215z" />
    <glyph glyph-name="eth" unicode="&#xf0;" horiz-adv-x="565" 
d="M565 1335l-65 -35c9.33301 -28.667 14 -53.667 14 -75v-1026c0 -58.667 -21.833 -108.167 -65.5 -148.5s-98.834 -60.5 -165.501 -60.5s-122 20.167 -166 60.5s-66 89.833 -66 148.5v688c0 125.333 59.333 188 178 188c50.667 0 92.334 -13 125.001 -39v189l-92 -49v41
l92 49v49c0 54.667 -23.667 82 -71 82h-52v37h52c90.667 0 156.667 -33.667 198 -101l84 43v-41zM354 109v890c-23.333 23.333 -51.333 35 -84 35c-39.333 0 -59 -26 -59 -78v-847c0 -54.667 24 -82 72 -82c47.333 0 71 27.333 71 82z" />
    <glyph glyph-name="ntilde" unicode="&#xf1;" horiz-adv-x="586" 
d="M575 0h-210v956c0 52 -20 78 -60 78c-26 0 -50.667 -11.667 -74 -35v-962h52v-37h-263v37h52v991h-52v37h211v-29c30 26 69.667 39 119 39c116 0 174 -62.667 174 -188v-850h51v-37zM533 1331l-13.002 -59c-15.333 -75.333 -55.666 -113 -120.999 -113c-16 0 -33 2 -51 6
l-155 37c-10 2.66699 -19 4 -27 4c-30 0 -54.667 -19 -74 -57l-34 10l12 60c15.333 74.667 56 112 122 112c15.333 0 32 -2 50 -6l156 -37c9.33301 -2 18 -3 26 -3c30.667 0 55.334 18.667 74.001 56z" />
    <glyph glyph-name="ograve" unicode="&#xf2;" horiz-adv-x="565" 
d="M514 199c0 -58.667 -21.833 -108.167 -65.5 -148.5s-98.834 -60.5 -165.501 -60.5s-122 20.167 -166 60.5s-66 89.833 -66 148.5v667c0 58.667 22 108.167 66 148.5s99.333 60.5 166 60.5s121.834 -20.167 165.501 -60.5s65.5 -89.833 65.5 -148.5v-667zM354 109v847
c0 54.667 -23.667 82 -71 82c-48 0 -72 -27.333 -72 -82v-847c0 -54.667 24 -82 72 -82c47.333 0 71 27.333 71 82zM313 1126h-45l-213 287v21h174z" />
    <glyph glyph-name="oacute" unicode="&#xf3;" horiz-adv-x="565" 
d="M514 199c0 -58.667 -21.833 -108.167 -65.5 -148.5s-98.834 -60.5 -165.501 -60.5s-122 20.167 -166 60.5s-66 89.833 -66 148.5v667c0 58.667 22 108.167 66 148.5s99.333 60.5 166 60.5s121.834 -20.167 165.501 -60.5s65.5 -89.833 65.5 -148.5v-667zM354 109v847
c0 54.667 -23.667 82 -71 82c-48 0 -72 -27.333 -72 -82v-847c0 -54.667 24 -82 72 -82c47.333 0 71 27.333 71 82zM498 1413l-213 -287h-45l84 308h174v-21z" />
    <glyph glyph-name="ocircumflex" unicode="&#xf4;" horiz-adv-x="565" 
d="M514 199c0 -58.667 -21.833 -108.167 -65.5 -148.5s-98.834 -60.5 -165.501 -60.5s-122 20.167 -166 60.5s-66 89.833 -66 148.5v667c0 58.667 22 108.167 66 148.5s99.333 60.5 166 60.5s121.834 -20.167 165.501 -60.5s65.5 -89.833 65.5 -148.5v-667zM354 109v847
c0 54.667 -23.667 82 -71 82c-48 0 -72 -27.333 -72 -82v-847c0 -54.667 24 -82 72 -82c47.333 0 71 27.333 71 82zM479 1126h-45l-150 146l-149 -146h-47l155 308h78z" />
    <glyph glyph-name="otilde" unicode="&#xf5;" horiz-adv-x="565" 
d="M514 199c0 -58.667 -21.833 -108.167 -65.5 -148.5s-98.834 -60.5 -165.501 -60.5s-122 20.167 -166 60.5s-66 89.833 -66 148.5v667c0 58.667 22 108.167 66 148.5s99.333 60.5 166 60.5s121.834 -20.167 165.501 -60.5s65.5 -89.833 65.5 -148.5v-667zM354 109v847
c0 54.667 -23.667 82 -71 82c-48 0 -72 -27.333 -72 -82v-847c0 -54.667 24 -82 72 -82c47.333 0 71 27.333 71 82zM531 1331l-13.002 -59c-15.333 -75.333 -55.666 -113 -120.999 -113c-16 0 -33 2 -51 6l-155 37c-10 2.66699 -19 4 -27 4c-30 0 -54.667 -19 -74 -57
l-34 10l12 60c15.333 74.667 56 112 122 112c15.333 0 32 -2 50 -6l156 -37c9.33301 -2 18 -3 26 -3c30.667 0 55.334 18.667 74.001 56z" />
    <glyph glyph-name="odieresis" unicode="&#xf6;" horiz-adv-x="565" 
d="M514 199c0 -58.667 -21.833 -108.167 -65.5 -148.5s-98.834 -60.5 -165.501 -60.5s-122 20.167 -166 60.5s-66 89.833 -66 148.5v667c0 58.667 22 108.167 66 148.5s99.333 60.5 166 60.5s121.834 -20.167 165.501 -60.5s65.5 -89.833 65.5 -148.5v-667zM354 109v847
c0 54.667 -23.667 82 -71 82c-48 0 -72 -27.333 -72 -82v-847c0 -54.667 24 -82 72 -82c47.333 0 71 27.333 71 82zM466 1143h-143v215h143v-215zM245 1143h-143v215h143v-215z" />
    <glyph glyph-name="divide" unicode="&#xf7;" horiz-adv-x="838" 
d="M523 944c0 -29.333 -10.167 -54.5 -30.5 -75.5s-45.166 -31.5 -74.499 -31.5c-28.667 0 -53.167 10.5 -73.5 31.5s-30.5 46.167 -30.5 75.5s10.167 54.333 30.5 75s44.833 31 73.5 31c29.333 0 54.166 -10.333 74.499 -31s30.5 -45.667 30.5 -75zM768 625h-698v126h698
v-126zM523 430c0 -29.333 -10.167 -54.333 -30.5 -75s-45.166 -31 -74.499 -31c-28.667 0 -53.167 10.333 -73.5 31s-30.5 45.667 -30.5 75s10.167 54.5 30.5 75.5s44.833 31.5 73.5 31.5c29.333 0 54.166 -10.5 74.499 -31.5s30.5 -46.167 30.5 -75.5z" />
    <glyph glyph-name="oslash" unicode="&#xf8;" horiz-adv-x="565" 
d="M514 199c0 -58.667 -21.833 -108.167 -65.5 -148.5s-98.834 -60.5 -165.501 -60.5c-35.333 0 -68.333 6 -99 18l-32 -131h-50l39 154c-60 42 -90 98 -90 168v667c0 58.667 22 108.167 66 148.5s99.333 60.5 166 60.5c34.667 0 67.334 -6 98.001 -18l33 131h49l-39 -154
c60 -42 90 -98 90 -168v-667zM354 956c0 54.667 -23.667 82 -71 82c-48 0 -72 -27.333 -72 -82v-628zM354 109v628l-143 -628c0 -54.667 24 -82 72 -82c47.333 0 71 27.333 71 82z" />
    <glyph glyph-name="ugrave" unicode="&#xf9;" horiz-adv-x="582" 
d="M565 0h-210.999v29c-30 -26 -69.333 -39 -118 -39c-116.667 0 -175 62.667 -175 188v850h-51v37h211v-956c0 -52 20 -78 60 -78c25.333 0 49.666 11.667 72.999 35v962h-51v37h211v-1028h51v-37zM313.001 1126h-45l-213 287v21h174z" />
    <glyph glyph-name="uacute" unicode="&#xfa;" horiz-adv-x="582" 
d="M565 0h-210.999v29c-30 -26 -69.333 -39 -118 -39c-116.667 0 -175 62.667 -175 188v850h-51v37h211v-956c0 -52 20 -78 60 -78c25.333 0 49.666 11.667 72.999 35v962h-51v37h211v-1028h51v-37zM512.001 1413l-213 -287h-45l84 308h174v-21z" />
    <glyph glyph-name="ucircumflex" unicode="&#xfb;" horiz-adv-x="582" 
d="M565 0h-210.999v29c-30 -26 -69.333 -39 -118 -39c-116.667 0 -175 62.667 -175 188v850h-51v37h211v-956c0 -52 20 -78 60 -78c25.333 0 49.666 11.667 72.999 35v962h-51v37h211v-1028h51v-37zM479.001 1126h-45l-150 146l-149 -146h-47l155 308h78z" />
    <glyph glyph-name="udieresis" unicode="&#xfc;" horiz-adv-x="582" 
d="M565 0h-210.999v29c-30 -26 -69.333 -39 -118 -39c-116.667 0 -175 62.667 -175 188v850h-51v37h211v-956c0 -52 20 -78 60 -78c25.333 0 49.666 11.667 72.999 35v962h-51v37h211v-1028h51v-37zM466.001 1143h-143v215h143v-215zM245.001 1143h-143v215h143v-215z" />
    <glyph glyph-name="yacute" unicode="&#xfd;" horiz-adv-x="578" 
d="M514 -88c0 -58.667 -20.666 -108.167 -61.999 -148.5s-95 -60.5 -161 -60.5c-62 0 -115.833 20.5 -161.5 61.5s-68.5 90.167 -68.5 147.5v37h160v-127c0 -54.667 23.333 -82 70 -82c42 0 63 27.333 63 82v227c-30 -26 -69.333 -39 -118 -39c-116.667 0 -175 63 -175 189
v829h-51v37h211v-936c0 -52 20 -78 60 -78c25.333 0 49.666 11.667 72.999 35v942h-51v37h211v-1153zM500.001 1413l-213 -287h-45l84 308h174v-21z" />
    <glyph glyph-name="thorn" unicode="&#xfe;" horiz-adv-x="569" 
d="M516 178c0 -125.333 -58 -188 -174 -188c-49.333 0 -89 13 -119 39v-279h51v-37h-262v37h51v1647h-51v37h211v-398c30 26 69.667 39 119 39c116 0 174 -62.667 174 -188v-709zM356 109v847c0 52 -19.667 78 -59 78c-26 0 -50.667 -11.667 -74 -35v-933
c23.333 -23.333 48 -35 74 -35c39.333 0 59 26 59 78z" />
    <glyph glyph-name="ydieresis" unicode="&#xff;" horiz-adv-x="578" 
d="M514 -88c0 -58.667 -20.666 -108.167 -61.999 -148.5s-95 -60.5 -161 -60.5c-62 0 -115.833 20.5 -161.5 61.5s-68.5 90.167 -68.5 147.5v37h160v-127c0 -54.667 23.333 -82 70 -82c42 0 63 27.333 63 82v227c-30 -26 -69.333 -39 -118 -39c-116.667 0 -175 63 -175 189
v829h-51v37h211v-936c0 -52 20 -78 60 -78c25.333 0 49.666 11.667 72.999 35v942h-51v37h211v-1153zM464.001 1143h-143v215h143v-215zM243.001 1143h-143v215h143v-215z" />
    <glyph glyph-name="dotlessi" unicode="&#x131;" horiz-adv-x="311" 
d="M289 0h-262v37h51v991h-51v37h211v-1028h51v-37z" />
    <glyph glyph-name="Lslash" unicode="&#x141;" horiz-adv-x="563" 
d="M532 0h-501v37h51v629l-51 -31v41l51 31v690h-51v37h266v-37h-51v-590l123 74v-41l-123 -74v-729h123v393h163v-430z" />
    <glyph glyph-name="lslash" unicode="&#x142;" horiz-adv-x="307" 
d="M285 0h-262v37h51v653l-51 -31v39l51 31v668h-51v37h210v-607l52 31v-39l-52 -31v-751h52v-37z" />
    <glyph glyph-name="OE" unicode="&#x152;" horiz-adv-x="901" 
d="M850 0h-543c-67.333 0 -125.166 20.5 -173.499 61.5s-72.5 90.167 -72.5 147.5v1016c0 57.333 24.167 106.5 72.5 147.5s106.166 61.5 173.499 61.5h543v-430h-164v393h-133v-621h195v-37h-195v-702h133v393h164v-430zM389 37v1360h-82c-22.667 0 -42 -8 -58 -24
s-24 -35.333 -24 -58v-1196c0 -22.667 8 -42 24 -58s35.333 -24 58 -24h82z" />
    <glyph glyph-name="oe" unicode="&#x153;" horiz-adv-x="868" 
d="M817 199c0 -58.667 -21.832 -108.167 -65.499 -148.5s-98.834 -60.5 -165.501 -60.5c-51.333 0 -102 19.667 -152 59c-42 -39.333 -92.333 -59 -151 -59c-66.667 0 -122 20.167 -166 60.5s-66 89.833 -66 148.5v667c0 58.667 22 108.167 66 148.5s99.333 60.5 166 60.5
c59.333 0 109.666 -16.333 150.999 -49c41.333 32.667 92 49 152 49c66.667 0 121.834 -20.167 165.501 -60.5s65.5 -89.833 65.5 -148.5v-350h-303v-407c0 -54.667 24 -82 72 -82c47.333 0 71 27.333 71 82v217h160v-127zM657.001 553v403c0 54.667 -23.667 82 -71 82
c-48 0 -72 -27.333 -72 -82v-403h143zM354.001 109v847c0 54.667 -23.667 82 -71 82c-48 0 -72 -27.333 -72 -82v-847c0 -54.667 24 -82 72 -82c47.333 0 71 27.333 71 82z" />
    <glyph glyph-name="Scaron" unicode="&#x160;" horiz-adv-x="578" 
d="M524 199c0 -58 -22.5 -107.333 -67.5 -148s-100.833 -61 -167.5 -61c-67.333 0 -123.5 20.333 -168.5 61s-67.5 90 -67.5 148v231h164v-321c0 -54.667 24 -82 72 -82c47.333 0 71 27.333 71 82v249c0 68 -16.333 127.667 -49 179l-205 319
c-35.333 55.333 -53 116.666 -53 183.999v195c0 58 22.5 107.333 67.5 148s101.167 61 168.5 61c66.667 0 122.5 -20.333 167.5 -61s67.5 -90 67.5 -148v-231h-164v321c0 54.667 -23.667 82 -71 82c-48 0 -72 -27.333 -72 -82v-240c0 -67.333 16.333 -126.666 49 -177.999
l205 -319c35.333 -55.333 53 -117 53 -185v-204zM488 1792l-158 -308h-78l-155 308h47l149 -146l150 146h45z" />
    <glyph glyph-name="scaron" unicode="&#x161;" horiz-adv-x="532" 
d="M489 199c0 -59.333 -19.667 -108.667 -59 -148c-42 -40.667 -96 -61 -162 -61s-120 20.167 -162 60.5s-63 89.833 -63 148.5v127h160v-217c0 -54.667 21.667 -82 65 -82c41.333 0 62 27.333 62 82v157c0 66 -18.667 117.333 -56 154l-168 166c-42 41.333 -63 102 -63 182
v98c0 59.333 20.333 109 61 149s94 60 160 60s119.333 -20 160 -60s61 -89.667 61 -149v-127h-159v217c0 54.667 -20.667 82 -62 82c-40.667 0 -61 -27.333 -61 -82v-141c0 -66 18.333 -117 55 -153l168 -166c42 -42 63 -103 63 -183v-114zM461 1434l-158 -308h-78l-155 308
h47l149 -146l150 146h45z" />
    <glyph glyph-name="Ydieresis" unicode="&#x178;" horiz-adv-x="584" 
d="M573 1397h-51l-153 -817v-543h51v-37h-266v37h51v543l-144 817h-51v37h262v-37h-51l121 -713l131 713h-51v37h151v-37zM489 1485h-143v215h143v-215zM268 1485h-143v215h143v-215z" />
    <glyph glyph-name="Zcaron" unicode="&#x17d;" horiz-adv-x="582" 
d="M541 1397l-336 -1360h174v393h151v-430h-489v37l336 1360h-174v-393h-152v430h490v-37zM486 1792l-158 -308h-78l-155 308h47l149 -146l150 146h45z" />
    <glyph glyph-name="zcaron" unicode="&#x17e;" horiz-adv-x="528" 
d="M485 0h-450v37l291 991h-131v-289h-152v326h442v-37l-290 -991h139v289h151v-326zM463 1434l-158 -308h-78l-155 308h47l149 -146l150 146h45z" />
    <glyph glyph-name="florin" unicode="&#x192;" horiz-adv-x="365" 
d="M360 1397h-41c-47.333 0 -71 -27.333 -71 -82v-250h82v-37h-82v-1106c0 -58 -22 -107.333 -66 -148s-99.333 -61 -166 -61h-51v37h39c53.333 0 80 27.333 80 82v1196h-51v37h51v160c0 58 22.5 107.333 67.5 148s100.833 61 167.5 61h41v-37z" />
    <glyph glyph-name="circumflex" unicode="&#x2c6;" 
d="M502 1126h-45l-150 146l-149 -146h-47l155 308h78z" />
    <glyph glyph-name="caron" unicode="&#x2c7;" 
d="M502 1434l-158 -308h-78l-155 308h47l149 -146l150 146h45z" />
    <glyph glyph-name="breve" unicode="&#x2d8;" 
d="M502 1300c0 -102 -65 -153 -195 -153c-129.333 0 -194 51 -194 153v50h141v-111c0 -40.667 17.667 -61 53 -61s53 20.333 53 61v111h142v-50z" />
    <glyph glyph-name="dotaccent" unicode="&#x2d9;" 
d="M379 1143h-143v215h143v-215z" />
    <glyph glyph-name="ring" unicode="&#x2da;" 
d="M502 1280c0 -102.667 -65 -154 -195 -154c-129.333 0 -194 51.333 -194 154s64.667 154 194 154c130 0 195 -51.333 195 -154zM360 1219v122c0 41.333 -17.667 62 -53 62s-53 -20.667 -53 -62v-122c0 -41.333 17.667 -62 53 -62s53 20.667 53 62z" />
    <glyph glyph-name="ogonek" unicode="&#x2db;" 
d="M453 -287h-21c-136.667 0 -205 63 -205 189v98h133v-158c0 -61.333 24 -92 72 -92h21v-37z" />
    <glyph glyph-name="tilde" unicode="&#x2dc;" 
d="M545 1331l-13.002 -59c-15.333 -75.333 -55.666 -113 -120.999 -113c-16 0 -33 2 -51 6l-155 37c-10 2.66699 -19 4 -27 4c-30 0 -54.667 -19 -74 -57l-34 10l12 60c15.333 74.667 56 112 122 112c15.333 0 32 -2 50 -6l156 -37c9.33301 -2 18 -3 26 -3
c30.667 0 55.334 18.667 74.001 56z" />
    <glyph glyph-name="hungarumlaut" unicode="&#x2dd;" 
d="M541 1413l-213 -287h-45l84 308h174v-21zM315 1413l-213 -287h-45l84 308h174v-21z" />
    <glyph glyph-name="Delta" unicode="&#x394;" horiz-adv-x="819" 
d="M775 0l-730 -0.000976562v122l297 1447h137c6.66699 -38.667 58.667 -293 156 -763c94 -457.333 140.667 -686.666 140 -687.999v-118zM637 131.999l-229 1187l-228 -1187h457z" />
    <glyph glyph-name="Delta" unicode="&#x2206;" horiz-adv-x="819" 
d="M775 0l-730 -0.000976562v122l297 1447h137c6.66699 -38.667 58.667 -293 156 -763c94 -457.333 140.667 -686.666 140 -687.999v-118zM637 131.999l-229 1187l-228 -1187h457z" />
    <glyph glyph-name="Omega" unicode="&#x3a9;" horiz-adv-x="1056" 
d="M1000 -1h-388v490h184v953l-531 -1l-1 -952h184v-490h-389v130h272v237h-95c-32.667 0 -59.334 10.333 -80.001 31s-31 47.334 -31 80.001v977c0 32.667 10.333 59.334 31 80.001s47.334 31 80.001 31h585c32.667 0 59.834 -10.333 81.501 -31s32.5 -47.334 32.5 -80.001
v-977c0 -32.667 -10.333 -59.334 -31 -80.001s-47.334 -31 -80.001 -31h-95v-237h271v-130z" />
    <glyph glyph-name="Omega" unicode="&#x2126;" horiz-adv-x="1056" 
d="M1000 -1h-388v490h184v953l-531 -1l-1 -952h184v-490h-389v130h272v237h-95c-32.667 0 -59.334 10.333 -80.001 31s-31 47.334 -31 80.001v977c0 32.667 10.333 59.334 31 80.001s47.334 31 80.001 31h585c32.667 0 59.834 -10.333 81.501 -31s32.5 -47.334 32.5 -80.001
v-977c0 -32.667 -10.333 -59.334 -31 -80.001s-47.334 -31 -80.001 -31h-95v-237h271v-130z" />
    <glyph glyph-name="pi" unicode="&#x3c0;" horiz-adv-x="804" 
d="M764 770h-148v-770h-135v770h-163v-770h-135v770h-144v123h725v-123z" />
    <glyph glyph-name="endash" unicode="&#x2013;" horiz-adv-x="410" 
d="M375 737h-340v41h340v-41z" />
    <glyph glyph-name="emdash" unicode="&#x2014;" 
d="M580 737h-545v41h545v-41z" />
    <glyph glyph-name="quoteleft" unicode="&#x2018;" horiz-adv-x="270" 
d="M223 1434l-33 -430h-163v36l120 394h76z" />
    <glyph glyph-name="quoteright" unicode="&#x2019;" horiz-adv-x="270" 
d="M225 1397l-121 -393h-75l32 430h164v-37z" />
    <glyph glyph-name="quotesinglbase" unicode="&#x201a;" horiz-adv-x="270" 
d="M229 209l-120 -393h-76l33 430h163v-37z" />
    <glyph glyph-name="quotedblleft" unicode="&#x201c;" horiz-adv-x="492" 
d="M444 1434l-32 -430h-164v36l121 394h75zM223 1434l-33 -430h-163v36l120 394h76z" />
    <glyph glyph-name="quotedblright" unicode="&#x201d;" horiz-adv-x="492" 
d="M446 1397l-120 -393h-76l33 430h163v-37zM225 1397l-121 -393h-75l32 430h164v-37z" />
    <glyph glyph-name="quotedblbase" unicode="&#x201e;" horiz-adv-x="492" 
d="M451 209l-121 -393h-76l33 430h164v-37zM229 209l-120 -393h-76l33 430h163v-37z" />
    <glyph glyph-name="dagger" unicode="&#x2020;" horiz-adv-x="528" 
d="M498 1004h-154v-459l-49 -545h-62l-49 545v459h-153v36h153v357h-51v37h262v-37h-51v-357h154v-36z" />
    <glyph glyph-name="daggerdbl" unicode="&#x2021;" horiz-adv-x="528" 
d="M498 545h-154l-49 -545h-62l-49 545h-153v37h153v422h-153v36h153v357h-51v37h262v-37h-51v-357h154v-36h-154v-422h154v-37z" />
    <glyph glyph-name="bullet" unicode="&#x2022;" horiz-adv-x="565" 
d="M492 526c0 -62.667 -19.667 -113.167 -59 -151.5s-89.333 -57.5 -150 -57.5c-61.333 0 -111.5 19.167 -150.5 57.5s-58.5 88.833 -58.5 151.5v381c0 62.667 19.5 113.167 58.5 151.5s89.167 57.5 150.5 57.5c60.667 0 110.667 -19.167 150 -57.5s59 -88.833 59 -151.5
v-381z" />
    <glyph glyph-name="ellipsis" unicode="&#x2026;" horiz-adv-x="768" 
d="M719 0h-158v246h158v-246zM463 0h-158v246h158v-246zM207 0h-158v246h158v-246z" />
    <glyph glyph-name="perthousand" unicode="&#x2030;" horiz-adv-x="1444" 
d="M1403 166c0 -48.667 -18.667 -90.167 -56 -124.5s-84.333 -51.5 -141 -51.5c-56 0 -102.667 17.167 -140 51.5s-56 75.833 -56 124.5v487c0 49.333 18.667 91 56 125s84 51 140 51c56.667 0 103.667 -17 141 -51s56 -75.667 56 -125v-487zM440 780
c0 -48.667 -18.667 -90.167 -56 -124.5s-84 -51.5 -140 -51.5c-56.667 0 -103.667 17.167 -141 51.5s-56 75.833 -56 124.5v488c0 48.667 18.667 90.167 56 124.5s84.333 51.5 141 51.5c56 0 102.667 -17.167 140 -51.5s56 -75.833 56 -124.5v-488zM786 1434l-532 -1434h-47
l532 1434h47zM946 166c0 -48.667 -18.667 -90.167 -56 -124.5s-84 -51.5 -140 -51.5c-56.667 0 -103.667 17.167 -141 51.5s-56 75.833 -56 124.5v487c0 49.333 18.667 91 56 125s84.333 51 141 51c56 0 102.667 -17 140 -51s56 -75.667 56 -125v-487zM1262 92v635
c0 44 -18.667 66 -56 66c-36.667 0 -55 -22 -55 -66v-635c0 -43.333 18.333 -65 55 -65c37.333 0 56 21.667 56 65zM299 707v634c0 44 -18.333 66 -55 66c-37.333 0 -56 -22 -56 -66v-634c0 -44 18.667 -66 56 -66c36.667 0 55 22 55 66zM805 92v635c0 44 -18.333 66 -55 66
c-37.333 0 -56 -22 -56 -66v-635c0 -43.333 18.667 -65 56 -65c36.667 0 55 21.667 55 65z" />
    <glyph glyph-name="guilsinglleft" unicode="&#x2039;" horiz-adv-x="360" 
d="M303 289h-61l-209 366v41l209 369h61l-92 -389z" />
    <glyph glyph-name="guilsinglright" unicode="&#x203a;" horiz-adv-x="360" 
d="M328 655l-209 -366h-62l93 387l-93 389h62l209 -369v-41z" />
    <glyph glyph-name="fraction" unicode="&#x2044;" horiz-adv-x="328" 
d="M295 1434l-205 -1434h-57l205 1434h57z" />
    <glyph glyph-name="fraction" unicode="&#x2215;" horiz-adv-x="328" 
d="M295 1434l-205 -1434h-57l205 1434h57z" />
    <glyph glyph-name="Euro" unicode="&#x20ac;" horiz-adv-x="655" 
d="M594 199c0 -57.333 -24.167 -106.5 -72.5 -147.5s-106.166 -61.5 -173.499 -61.5s-125.166 20.5 -173.499 61.5s-72.5 90.167 -72.5 147.5v487h-82v37h82v68h-82v36h82v408c0 57.333 24.167 106.5 72.5 147.5s106.166 61.5 173.499 61.5s125.166 -20.5 173.499 -61.5
s72.5 -90.167 72.5 -147.5v-231h-164v321c0 22.667 -8 42 -24 58s-35.333 24 -58 24s-42 -8 -58 -24s-24 -35.333 -24 -58v-498h226v-36h-226v-68h226v-37h-226v-577c0 -22.667 8 -42 24 -58s35.333 -24 58 -24s42 8 58 24s24 35.333 24 58v321h164v-231z" />
    <glyph glyph-name="trademark" unicode="&#x2122;" horiz-adv-x="1024" 
d="M997 594h-186v24h33v510l-78 -534h-92l-92 534v-510h34v-24h-108v24h35v789h-35v27h151l101 -639l86 639h151v-27h-34v-789h34v-24zM463 1133h-111v274h-47v-789h35v-24h-186v24h32v789h-47v-274h-110v301h434v-301z" />
    <glyph glyph-name="partialdiff" unicode="&#x2202;" horiz-adv-x="868" 
d="M745 859l0.000976562 -748c0 -32.667 -10.333 -59.334 -31 -80.001s-47.334 -31 -80.001 -31h-399c-32.667 0 -59.334 10.333 -80.001 31s-31 47.334 -31 80.001v641c0 32.667 10.333 59.167 31 79.5s47.334 30.5 80.001 30.5h357l-327 703h151zM605.001 123v618h-342
v-618h342z" />
    <glyph glyph-name="product" unicode="&#x220f;" horiz-adv-x="804" 
d="M764 1442h-148v-1442h-135v1442h-163v-1442h-135v1442h-144v123h725v-123z" />
    <glyph glyph-name="summation" unicode="&#x2211;" horiz-adv-x="731" 
d="M649 0h-564v108l382 688l-382 644v125h558v-123h-420l357 -587v-119l-356 -613h425v-123z" />
    <glyph glyph-name="radical" unicode="&#x221a;" horiz-adv-x="563" 
d="M541 1434l-195 -1434h-145l-146 575h-51v37h211l104 -442l170 1264h52z" />
    <glyph glyph-name="infinity" unicode="&#x221e;" horiz-adv-x="1270" 
d="M1236 252c0 -75.333 -37.6689 -112.999 -113.002 -112.999h-251c-42.667 0 -88.667 37.667 -138 113l-99 151l-98 -153c-28 -43.333 -49 -71.333 -63 -84c-19.333 -17.333 -43.333 -26.333 -72 -27h-253c-75.333 0 -113 37.667 -113 113v508c0 75.333 37.667 113 113 113
h253c44 -0.666992 90 -38.334 138 -113.001l97 -151l98 151c48.667 75.333 94.334 113 137.001 113h251c74.667 0 112.334 -37.667 113.001 -113v-508zM1102 256.001v500h-238l-161 -249l162 -251h237zM568.998 504.001l-165 252h-235v-500h240z" />
    <glyph glyph-name="integral" unicode="&#x222b;" horiz-adv-x="487" 
d="M477 1448h-188v-1737c0 -29.333 -8.66699 -54.333 -26 -75c-20 -24 -47.333 -36 -82 -36l-213 -1v117h189l1 1736c0 75.333 37.333 113 112 113h207v-117z" />
    <glyph glyph-name="approxequal" unicode="&#x2248;" horiz-adv-x="1034" 
d="M864 804c0 -57.333 -27.333 -86 -82 -86c-33.333 0 -68 6.66699 -104 20l-377 144v-158h-131v209c0 57.333 27.333 86 82 86c34 0 68.667 -7 104 -21l377 -143v158h131v-209zM864 409c0 -57.333 -27.333 -86 -82 -86c-33.333 0 -68 6.66699 -104 20l-377 144v-158h-131
v209c0 57.333 27.333 86 82 86c34 0 68.667 -7 104 -21l377 -143v158h131v-209z" />
    <glyph glyph-name="notequal" unicode="&#x2260;" horiz-adv-x="903" 
d="M801 391h-347l-80 -322l-117 29l72 293h-227v119h257l61 246h-318v121h348l79 320l117 -29l-72 -291h227v-121h-257l-61 -246h318v-119z" />
    <glyph glyph-name="lessequal" unicode="&#x2264;" horiz-adv-x="698" 
d="M584 302h-6l-502 346v72l508 349v-139l-371 -245l371 -244v-139zM584 145h-508v119h508v-119z" />
    <glyph glyph-name="greaterequal" unicode="&#x2265;" horiz-adv-x="698" 
d="M604 648l-508 -346v139l370 244l-370 245v139h6l502 -349v-72zM603 145h-507v119h507v-119z" />
    <glyph glyph-name="lozenge" unicode="&#x25ca;" horiz-adv-x="826" 
d="M798 574l-347 -508h-72l-349 508l349 508h72zM659 574l-245 371l-245 -371l245 -371z" />
    <glyph glyph-name="fi" unicode="&#xf001;" horiz-adv-x="629" 
d="M612 0h-262.001v37h51v991h-170v-991h52v-37h-263v37h52v991h-52v37h52v160c0 58 21.833 107.333 65.5 148s98.834 61 165.501 61h258v-246h-160v209h-98c-48 0 -72 -27.333 -72 -82v-250h330v-1028h51v-37z" />
    <glyph glyph-name="fi" unicode="&#xfb01;" horiz-adv-x="629" 
d="M612 0h-262.001v37h51v991h-170v-991h52v-37h-263v37h52v991h-52v37h52v160c0 58 21.833 107.333 65.5 148s98.834 61 165.501 61h258v-246h-160v209h-98c-48 0 -72 -27.333 -72 -82v-250h330v-1028h51v-37z" />
    <glyph glyph-name="fl" unicode="&#xf002;" horiz-adv-x="629" 
d="M612 0h-262.001v37h51v1360h-98c-48 0 -72 -27.333 -72 -82v-250h82v-37h-82v-991h52v-37h-263v37h52v991h-52v37h52v160c0 58 21.833 107.333 65.5 148s98.834 61 165.501 61h258v-1397h51v-37z" />
    <glyph glyph-name="fl" unicode="&#xfb02;" horiz-adv-x="629" 
d="M612 0h-262.001v37h51v1360h-98c-48 0 -72 -27.333 -72 -82v-250h82v-37h-82v-991h52v-37h-263v37h52v991h-52v37h52v160c0 58 21.833 107.333 65.5 148s98.834 61 165.501 61h258v-1397h51v-37z" />
    <glyph glyph-name="glyph1" horiz-adv-x="0" 
 />
    <glyph glyph-name="glyph2" horiz-adv-x="307" 
 />
    <glyph glyph-name="apple" horiz-adv-x="1024" 
d="M128 0v1638h768v-1638h-768zM256 128h512v1382h-512v-1382z" />
    <glyph glyph-name="glyph247" horiz-adv-x="471" 
d="M436 735h-401v45h401v-45z" />
    <glyph glyph-name="glyph248" horiz-adv-x="123" 
d="M315 1434l-460 -1434h-48l461 1434h47z" />
    <glyph glyph-name="glyph249" horiz-adv-x="324" 
d="M291 1065l-205 -1065h-53l205 1065h53z" />
    <glyph glyph-name="glyph250" horiz-adv-x="461" 
d="M432 614h-237v33h47v190h-222v39l222 557h143v-557h47v-39h-47v-190h47v-33zM242 876v461l-179 -461h179z" />
    <glyph glyph-name="glyph251" horiz-adv-x="662" 
d="M684 1397h-51.001c-48 0 -72 -27.333 -72 -82v-250h82v-37h-82v-991h51v-37h-262v37h51v991h-170v-991h52v-37h-263v37h52v991h-52v37h52v160c0 58 21.833 107.333 65.5 148s98.834 61 165.501 61h51v-37h-51c-48 0 -72 -27.333 -72 -82v-250h170v160
c0 58 22 107.333 66 148s99.333 61 166 61h51v-37z" />
    <glyph glyph-name="glyph252" horiz-adv-x="958" 
d="M942 0h-262.001v37h51v991h-170v-991h51v-37h-262v37h51v991h-170v-991h52v-37h-263v37h52v991h-52v37h52v160c0 58 21.833 107.333 65.5 148s98.834 61 165.501 61h51v-37h-51c-48 0 -72 -27.333 -72 -82v-250h170v160c0 58 22 107.333 66 148s99.333 61 166 61h258
v-246h-160v209h-98c-48 0 -72 -27.333 -72 -82v-250h330v-1028h51v-37z" />
    <glyph glyph-name="glyph253" horiz-adv-x="958" 
d="M942 0h-262.001v37h51v1360h-98c-48 0 -72 -27.333 -72 -82v-250h82v-37h-82v-991h51v-37h-262v37h51v991h-170v-991h52v-37h-263v37h52v991h-52v37h52v160c0 58 21.833 107.333 65.5 148s98.834 61 165.501 61h51v-37h-51c-48 0 -72 -27.333 -72 -82v-250h170v160
c0 58 22 107.333 66 148s99.333 61 166 61h258v-1397h51v-37z" />
    <glyph glyph-name="glyph254" horiz-adv-x="754" 
d="M692 274c0 -78.667 -29.333 -145.332 -88 -199.999c-60.667 -56 -136.334 -84 -227.001 -84s-166 27.667 -226 83s-90 122.333 -90 201v885c0 79.333 30 146.666 90 201.999s135.333 83 226 83s166.334 -28 227.001 -84c58.667 -54.667 88 -121.667 88 -201v-885z
M653 270.002v893c0 68.667 -26.167 126.5 -78.5 173.5s-118.166 70.5 -197.499 70.5s-145.333 -23.5 -198 -70.5s-79 -104.833 -79 -173.5v-893c0 -68 26.333 -125.5 79 -172.5s118.667 -70.5 198 -70.5s145.166 23.5 197.499 70.5s78.5 104.5 78.5 172.5zM565 799.002
c0 -41.333 -16.833 -76.333 -50.5 -105s-74.167 -43 -121.5 -43h-51v-403h37v-27h-186v27h34v952h-34v25h200c47.333 0 87.833 -14.333 121.5 -43s50.5 -63 50.5 -103v-280zM451 735.002v408c0 38 -19.333 57 -58 57h-51v-522h51c38.667 0 58 19 58 57z" />
    <glyph glyph-name="glyph255" horiz-adv-x="303" 
d="M231 688l-49 -381h-61l-49 381v377h159v-377zM231 0h-159v246h159v-246z" />
    <glyph glyph-name="glyph256" horiz-adv-x="676" 
d="M666 739h-88l-50 -413h97v-37h-101l-32 -289h-152l33 289h-123l-33 -289h-156l33 289h-84v37h88l49 413h-96v37h101l32 289h156l-33 -289h123l33 289h151l-32 -289h84v-37zM426 739h-123l-49 -413h123z" />
    <glyph glyph-name="glyph257" horiz-adv-x="541" 
d="M494 199c0 -56 -18.167 -103.667 -54.5 -143s-84.5 -61.333 -144.5 -66v-113h-45v113c-60.667 4.66699 -109.667 26.834 -147 66.501s-56 87.167 -56 142.5v127h160v-217c0 -54.667 21.667 -82 65 -82c41.333 0 62 27.333 62 82v157c0 66 -18.333 117.333 -55 154
l-168 166c-42.667 41.333 -64 102 -64 182v98c0 56 18.5 103.833 55.5 143.5s86.167 61.5 147.5 65.5v113h45v-115c58 -4.66699 105.333 -27 142 -67c34.667 -38.667 52 -85.334 52 -140.001v-127h-159v217c0 54.667 -20.667 82 -62 82c-40.667 0 -61 -27.333 -61 -82v-141
c0 -66 18.333 -117 55 -153l168 -166c42.667 -42 64 -103 64 -183v-114z" />
    <glyph glyph-name="glyph258" horiz-adv-x="993" 
d="M946 166c0 -48.667 -18.667 -90.167 -56 -124.5s-84 -51.5 -140 -51.5c-56.667 0 -103.667 17.167 -141 51.5s-56 75.833 -56 124.5v283c0 48.667 18.667 90.167 56 124.5s84.333 51.5 141 51.5c56 0 102.667 -17.167 140 -51.5s56 -75.833 56 -124.5v-283zM786 1065
l-532 -1065h-47l532 1065h47zM440 616c0 -48.667 -18.667 -90.167 -56 -124.5s-84 -51.5 -140 -51.5c-56.667 0 -103.667 17.167 -141 51.5s-56 75.833 -56 124.5v283c0 48.667 18.667 90.167 56 124.5s84.333 51.5 141 51.5c56 0 102.667 -17.167 140 -51.5
s56 -75.833 56 -124.5v-283zM805 92v430c0 44 -18.333 66 -55 66c-37.333 0 -56 -22 -56 -66v-430c0 -43.333 18.667 -65 56 -65c36.667 0 55 21.667 55 65zM299 543v430c0 43.333 -18.333 65 -55 65c-37.333 0 -56 -21.667 -56 -65v-430c0 -44 18.667 -66 56 -66
c36.667 0 55 22 55 66z" />
    <glyph glyph-name="glyph259" horiz-adv-x="580" 
d="M561 535h-51v-336c0 -58.667 -21.833 -108.167 -65.5 -148.5s-98.834 -60.5 -165.501 -60.5s-122 20.167 -166 60.5s-66 89.833 -66 148.5v174c0 88 47.667 148 143 180c-95.333 32 -143 92 -143 180v133c0 58.667 22 108.167 66 148.5s99.333 60.5 166 60.5
s121.834 -20.167 165.501 -60.5s65.5 -89.833 65.5 -148.5v-127h-160v217c0 54.667 -23.667 82 -71 82c-48 0 -72 -27.333 -72 -82v-303c0 -22 8 -41.167 24 -57.5s35.333 -24.5 58 -24.5h272v-36zM350 109v426h-61c-22.667 0 -42 -8.16699 -58 -24.5s-24 -35.5 -24 -57.5
v-344c0 -54.667 24 -82 72 -82c47.333 0 71 27.333 71 82z" />
    <glyph glyph-name="glyph260" horiz-adv-x="358" 
d="M324 0h-31c-66.667 -0 -122 20.333 -166 61s-66 90 -66 148v647c0 58 22 107.333 66 148s99.333 61 166 61h31v-37h-31c-48 0 -72 -27.333 -72 -82v-827c0 -54.667 24 -82 72 -82h31v-37z" />
    <glyph glyph-name="glyph261" horiz-adv-x="358" 
d="M297 209c0 -58 -21.833 -107.333 -65.5 -148s-98.834 -61 -165.501 -61h-31v37h31c47.333 0 71 27.333 71 82v827c0 54.667 -23.667 82 -71 82h-31v37h31c66.667 0 121.834 -20.333 165.501 -61s65.5 -90 65.5 -148v-647z" />
    <glyph glyph-name="glyph262" horiz-adv-x="324" 
d="M291 1065l-205 -1065h-53l205 1065h53z" />
    <glyph glyph-name="glyph263" horiz-adv-x="565" 
d="M514 199c0 -58.667 -21.833 -108.167 -65.5 -148.5s-98.834 -60.5 -165.501 -60.5s-122 20.167 -166 60.5s-66 89.833 -66 148.5v667c0 58.667 22 108.167 66 148.5s99.333 60.5 166 60.5s121.834 -20.167 165.501 -60.5s65.5 -89.833 65.5 -148.5v-667zM354 109v847
c0 54.667 -23.667 82 -71 82c-48 0 -72 -27.333 -72 -82v-847c0 -54.667 24 -82 72 -82c47.333 0 71 27.333 71 82z" />
    <glyph glyph-name="glyph264" horiz-adv-x="326" 
d="M297 0h-262v37h51v991h-51v37h211v-1028h51v-37z" />
    <glyph glyph-name="glyph265" horiz-adv-x="561" 
d="M502 0h-451.001v170c0 62.667 17.667 124 53 184l189 320c32.667 55.333 49 114.666 49 177.999v104c0 54.667 -22 82 -66 82c-43.333 0 -65 -27.333 -65 -82v-217h-160v127c0 61.333 20.833 111.5 62.5 150.5s95.834 58.5 162.501 58.5
c67.333 0 121.833 -19.5 163.5 -58.5s62.5 -89.167 62.5 -150.5v-59c0 -62.667 -17.667 -124 -53 -184l-189 -320c-32.667 -55.333 -49 -114.666 -49 -177.999v-88h131v289h160v-326z" />
    <glyph glyph-name="glyph266" horiz-adv-x="549" 
d="M496 199c0 -63.333 -20.667 -114 -62 -152s-96 -57 -164 -57c-67.333 0 -121.666 19 -162.999 57s-62 88.667 -62 152v127h160v-217c0 -54.667 21.667 -82 65 -82c44 0 66 27.333 66 82v344c0 54.667 -27.333 82 -82 82h-104v36h104c54.667 0 82 27.333 82 82v303
c0 54.667 -22 82 -66 82c-43.333 0 -65 -27.333 -65 -82v-217h-160v127c0 63.333 20.667 114 62 152s95.666 57 162.999 57c68 0 122.667 -19 164 -57s62 -88.667 62 -152v-133c0 -88 -48 -148 -144 -180c96 -32 144 -92 144 -180v-174z" />
    <glyph glyph-name="glyph267" horiz-adv-x="512" 
d="M479 0h-262v37h51v184h-245v43l245 801h160v-801h51v-43h-51v-184h51v-37zM268 264v666l-198 -666h198z" />
    <glyph glyph-name="glyph268" horiz-adv-x="551" 
d="M502 199c0 -61.333 -21.1689 -111.5 -63.502 -150.5s-97.166 -58.5 -164.499 -58.5c-66.667 0 -121.167 19.5 -163.5 58.5s-63.5 89.167 -63.5 150.5v127h160v-217c0 -54.667 22.333 -82 67 -82c45.333 0 68 27.333 68 82v344c0 54.667 -24.667 82 -74 82h-217v530h436
v-326h-159v289h-117v-457h57c66.667 0 122.334 -20.167 167.001 -60.5s67 -89.833 67 -148.5v-163z" />
    <glyph glyph-name="glyph269" horiz-adv-x="569" 
d="M518 199c0 -60.667 -22 -110.667 -66 -150s-99.667 -59 -167 -59c-68 0 -124 19.667 -168 59s-66 89.333 -66 150v667c0 60.667 22 110.667 66 150s100 59 168 59c67.333 0 123 -19.667 167 -59s66 -89.333 66 -150v-127h-160v217c0 54.667 -24.333 82 -73 82
c-49.333 0 -74 -27.333 -74 -82v-387c30 26 72.333 39 127 39c120 0 180 -62.667 180 -188v-221zM358 109v380c0 52 -22.333 78 -67 78c-28 0 -54.667 -10 -80 -30v-428c0 -54.667 24.667 -82 74 -82c48.667 0 73 27.333 73 82z" />
    <glyph glyph-name="glyph270" horiz-adv-x="541" 
d="M508 1028l-225 -1028h-158l225 1028h-164v-289h-157v326h479v-37z" />
    <glyph glyph-name="glyph271" horiz-adv-x="565" 
d="M514 199c0 -58.667 -21.833 -108.167 -65.5 -148.5s-98.834 -60.5 -165.501 -60.5s-122 20.167 -166 60.5s-66 89.833 -66 148.5v174c0 88 48 148 144 180c-96 32 -144 92 -144 180v133c0 58.667 22 108.167 66 148.5s99.333 60.5 166 60.5
s121.834 -20.167 165.501 -60.5s65.5 -89.833 65.5 -148.5v-133c0 -88 -47.667 -148 -143 -180c95.333 -32 143 -92 143 -180v-174zM354 653v303c0 54.667 -23.667 82 -71 82c-48 0 -72 -27.333 -72 -82v-303c0 -54.667 24 -82 72 -82c47.333 0 71 27.333 71 82zM354 109
v344c0 54.667 -23.667 82 -71 82c-48 0 -72 -27.333 -72 -82v-344c0 -54.667 24 -82 72 -82c47.333 0 71 27.333 71 82z" />
    <glyph glyph-name="glyph272" horiz-adv-x="569" 
d="M518 199c0 -60.667 -22 -110.667 -66 -150s-99.667 -59 -167 -59c-68 0 -124 19.667 -168 59s-66 89.333 -66 150v127h160v-217c0 -54.667 24.667 -82 74 -82c48.667 0 73 27.333 73 82v387c-30 -26 -72.333 -39 -127 -39c-120 0 -180 62.667 -180 188v221
c0 60.667 22 110.667 66 150s100 59 168 59c67.333 0 123 -19.667 167 -59s66 -89.333 66 -150v-667zM358 528l0.000976562 428c0 54.667 -24.333 82 -73 82c-49.333 0 -74 -27.333 -74 -82v-381c0 -51.333 22.667 -77 68 -77c27.333 0 53.666 10 78.999 30z" />
    <glyph glyph-name="glyph273" horiz-adv-x="549" 
d="M500 815c0 -74 -15.667 -135.332 -47 -183.999l-80 -125c-37.333 -58 -59.333 -110 -66 -156l-6 -43h-61l-19 148c-2.66699 21.333 -4 41.666 -4 60.999c0 32 8.33301 60.667 25 86l51 80c28.667 44.667 43 104 43 178v96c0 54.667 -22 82 -66 82
c-43.333 0 -65 -27.333 -65 -82v-217h-164v127c0 60.667 21.333 110.667 64 150s97.667 59 165 59s122.5 -19.667 165.5 -59s64.5 -89.333 64.5 -150v-51zM350 0.000976562h-160v246h160v-246z" />
    <glyph glyph-name="glyph274" horiz-adv-x="754" 
d="M692 334c0 -82 -39.667 -122.998 -119 -122.998c-50.667 0 -92 17 -124 51c-34.667 -34 -72.334 -51 -113.001 -51c-90 0 -135 44.333 -135 133v383c0 87.333 45 131 135 131c41.333 0 72.666 -9 93.999 -27v21h115v-535c0 -48.667 16.333 -73 49 -73
c39.333 0 59 24.333 59 73v478c0 68 -26.167 125.5 -78.5 172.5s-118.166 70.5 -197.499 70.5s-145.333 -23.5 -198 -70.5s-79 -104.5 -79 -172.5v-514c0 -68.667 26.333 -126.5 79 -173.5s118.667 -70.5 198 -70.5h172v-37h-172c-90.667 0 -166 27.667 -226 83
s-90 122.666 -90 201.999v506c0 78.667 30 145.667 90 201s135.333 83 226 83s166.334 -28 227.001 -84c58.667 -54.667 88 -121.334 88 -200.001v-457zM430 281.002v524c-16 16 -36.333 24 -61 24c-36 0 -54 -17.667 -54 -53v-485c0 -34 13.667 -51 41 -51
c29.333 0 54 13.667 74 41z" />
    <glyph glyph-name="glyph275" horiz-adv-x="358" 
d="M324 0h-252v1065h252v-37h-93v-991h93v-37z" />
    <glyph glyph-name="glyph276" horiz-adv-x="324" 
d="M291 0h-53l-205 1065h53z" />
    <glyph glyph-name="glyph277" horiz-adv-x="358" 
d="M287 0h-252v37h92v991h-92v37h252v-1065z" />
    <glyph glyph-name="glyph278" horiz-adv-x="541" 
d="M530 0h-274v37h51l-28 258h-134l-30 -258h51v-37h-156v37h51l136 1028h147l135 -1028h51v-37zM274 332l-61 526l-63 -526h124z" />
    <glyph glyph-name="glyph279" horiz-adv-x="575" 
d="M524 209c0 -58 -21.833 -107.333 -65.5 -148s-98.834 -61 -165.501 -61h-273v37h52v991h-52v37h273c66.667 0 121.834 -20.333 165.501 -61s65.5 -90 65.5 -148v-123c0 -88 -47.667 -148 -143 -180c95.333 -32 143 -92 143 -180v-164zM365 653v293
c0 54.667 -24 82 -72 82h-62v-457h52c54.667 0 82 27.333 82 82zM365 119v334c0 54.667 -27.333 82 -82 82h-52v-498h62c48 0 72 27.333 72 82z" />
    <glyph glyph-name="glyph280" horiz-adv-x="559" 
d="M514 199c0 -58.667 -21.833 -108.167 -65.5 -148.5s-98.834 -60.5 -165.501 -60.5s-122 20.167 -166 60.5s-66 89.833 -66 148.5v667c0 58.667 22 108.167 66 148.5s99.333 60.5 166 60.5s121.834 -20.167 165.501 -60.5s65.5 -89.833 65.5 -148.5v-127h-160v217
c0 54.667 -23.667 82 -71 82c-48 0 -72 -27.333 -72 -82v-847c0 -54.667 24 -82 72 -82c47.333 0 71 27.333 71 82v217h160v-127z" />
    <glyph glyph-name="glyph281" horiz-adv-x="575" 
d="M524 209c0 -58 -21.833 -107.333 -65.5 -148s-98.834 -61 -165.501 -61h-273v37h52v991h-52v37h273c66.667 0 121.834 -20.333 165.501 -61s65.5 -90 65.5 -148v-647zM365 119v827c0 54.667 -24 82 -72 82h-62v-991h62c48 0 72 27.333 72 82z" />
    <glyph glyph-name="glyph282" horiz-adv-x="553" 
d="M510 0h-490v37h52v991h-52v37h490v-326h-160v289h-119v-457h160v-36h-160v-498h119v289h160v-326z" />
    <glyph glyph-name="glyph283" horiz-adv-x="528" 
d="M500 739h-160v289h-109v-457h150v-36h-150v-498h52v-37h-263v37h52v991h-52v37h480v-326z" />
    <glyph glyph-name="glyph284" horiz-adv-x="565" 
d="M514 199c0 -58.667 -21.833 -108.167 -65.5 -148.5s-98.834 -60.5 -165.501 -60.5s-122 20.167 -166 60.5s-66 89.833 -66 148.5v667c0 58.667 22 108.167 66 148.5s99.333 60.5 166 60.5s121.834 -20.167 165.501 -60.5s65.5 -89.833 65.5 -148.5v-127h-160v217
c0 54.667 -23.667 82 -71 82c-48 0 -72 -27.333 -72 -82v-847c0 -54.667 24 -82 72 -82c47.333 0 71 27.333 71 82v426h-71v36h231v-372z" />
    <glyph glyph-name="glyph285" horiz-adv-x="596" 
d="M575 0h-256v37h46v498h-134v-498h45v-37h-256v37h52v991h-52v37h256v-37h-45v-457h134v457h-46v37h256v-37h-51v-991h51v-37z" />
    <glyph glyph-name="glyph286" horiz-adv-x="315" 
d="M289 0h-262v37h51v991h-51v37h262v-37h-51v-991h51v-37z" />
    <glyph glyph-name="glyph287" horiz-adv-x="530" 
d="M514 1028h-51v-829c0 -58 -21.167 -107.333 -63.5 -148s-93.5 -61 -153.5 -61c-60.667 0 -112 20.333 -154 61s-63 90 -63 148v127h159v-228c0 -47.333 19.333 -71 58 -71c38 0 57 23.667 57 71v930h-51v37h262v-37z" />
    <glyph glyph-name="glyph288" horiz-adv-x="580" 
d="M571 0h-206l-134 522v-485h52v-37h-263v37h52v991h-52v37h263v-37h-52v-436l205 436h-53v37h156v-37h-52l-151 -328l180 -663h55v-37z" />
    <glyph glyph-name="glyph289" horiz-adv-x="528" 
d="M500 0h-480v37h52v991h-52v37h263v-37h-52v-991h109v289h160v-326z" />
    <glyph glyph-name="glyph290" horiz-adv-x="705" 
d="M684 0h-262v37h51v688l-121 -725h-110l-121 725v-688h51v-37h-152v37h52v991h-52v37h211l119 -789l125 789h209v-37h-51v-991h51v-37z" />
    <glyph glyph-name="glyph291" horiz-adv-x="535" 
d="M514 1028h-51v-1028h-111l-231 838v-801h51v-37h-152v37h52v991h-52v37h201l193 -696v659h-52v37h152v-37z" />
    <glyph glyph-name="glyph292" horiz-adv-x="565" 
d="M514 199c0 -58.667 -21.833 -108.167 -65.5 -148.5s-98.834 -60.5 -165.501 -60.5s-122 20.167 -166 60.5s-66 89.833 -66 148.5v667c0 58.667 22 108.167 66 148.5s99.333 60.5 166 60.5s121.834 -20.167 165.501 -60.5s65.5 -89.833 65.5 -148.5v-667zM354 109v847
c0 54.667 -23.667 82 -71 82c-48 0 -72 -27.333 -72 -82v-847c0 -54.667 24 -82 72 -82c47.333 0 71 27.333 71 82z" />
    <glyph glyph-name="glyph293" horiz-adv-x="549" 
d="M524 659c0 -58 -21.833 -107.167 -65.5 -147.5s-98.834 -60.5 -165.501 -60.5h-62v-414h52v-37h-263v37h52v991h-52v37h273c66.667 0 121.834 -20.333 165.501 -61s65.5 -90 65.5 -148v-197zM365 569v377c0 54.667 -24 82 -72 82h-62v-541h62c48 0 72 27.333 72 82z" />
    <glyph glyph-name="glyph294" horiz-adv-x="565" 
d="M514 199c0 -55.333 -20.002 -103 -60.002 -143s-91 -62 -153 -66v-174h-37v174c-61.333 4 -112.166 26 -152.499 66s-60.5 87.667 -60.5 143v667c0 58.667 22 108.167 66 148.5s99.333 60.5 166 60.5s121.834 -20.167 165.501 -60.5s65.5 -89.833 65.5 -148.5v-667z
M353.998 109v847c0 54.667 -23.667 82 -71 82c-48 0 -72 -27.333 -72 -82v-847c0 -45.333 17.667 -72 53 -80v213h37v-213c35.333 8 53 34.667 53 80z" />
    <glyph glyph-name="glyph295" horiz-adv-x="584" 
d="M575 0h-71.001c-92.667 -0 -139 46.333 -139 139v314c0 54.667 -27.333 82 -82 82h-52v-498h45v-37h-256v37h52v991h-52v37h273c66.667 0 121.834 -20.333 165.501 -61s65.5 -90 65.5 -148v-123c0 -88 -47.667 -148 -143 -180c95.333 -32 143 -92 143 -180v-281
c0 -36.667 15.667 -55 47 -55h4v-37zM364.999 653v293c0 54.667 -24 82 -72 82h-62v-457h52c54.667 0 82 27.333 82 82z" />
    <glyph glyph-name="glyph296" horiz-adv-x="532" 
d="M489 199c0 -59.333 -19.667 -108.667 -59 -148c-42 -40.667 -96 -61 -162 -61s-120 20.167 -162 60.5s-63 89.833 -63 148.5v127h160v-217c0 -54.667 21.667 -82 65 -82c41.333 0 62 27.333 62 82v157c0 66 -18.667 117.333 -56 154l-168 166c-42 41.333 -63 102 -63 182
v98c0 59.333 20.333 109 61 149s94 60 160 60s119.333 -20 160 -60s61 -89.667 61 -149v-127h-159v217c0 54.667 -20.667 82 -62 82c-40.667 0 -61 -27.333 -61 -82v-141c0 -66 18.333 -117 55 -153l168 -166c42 -42 63 -103 63 -183v-114z" />
    <glyph glyph-name="glyph297" horiz-adv-x="594" 
d="M573 739h-143v289h-57v-991h51v-37h-254v37h51v991h-57v-289h-144v326h553v-326z" />
    <glyph glyph-name="glyph298" horiz-adv-x="590" 
d="M573 1028h-51v-829c0 -58.667 -21.167 -108.167 -63.5 -148.5s-96.833 -60.5 -163.5 -60.5s-121.167 20.167 -163.5 60.5s-63.5 89.833 -63.5 148.5v829h-52v37h256v-37h-45v-919c0 -54.667 22.667 -82 68 -82c44.667 0 67 27.333 67 82v919h-45v37h256v-37z" />
    <glyph glyph-name="glyph299" horiz-adv-x="541" 
d="M530 1028h-51l-135 -1028h-147l-136 1028h-51v37h275v-37h-52l93 -833l100 833h-51v37h155v-37z" />
    <glyph glyph-name="glyph300" horiz-adv-x="743" 
d="M733 1028h-51l-94 -1028h-156l-70 776l-51 -776h-155l-95 1028h-51v37h260v-37h-51l57 -807l58 844h151l72 -844l68 807h-52v37h160v-37z" />
    <glyph glyph-name="glyph301" horiz-adv-x="522" 
d="M512 0h-270v37h51l-78 348l-100 -348h51v-37h-156v37h51l134 438l-129 553h-52v37h271v-37h-52l74 -332l96 332h-51v37h156v-37h-51l-129 -424l133 -567h51v-37z" />
    <glyph glyph-name="glyph302" horiz-adv-x="561" 
d="M551 1028h-51l-140 -584v-407h52v-37h-262v37h51v407l-140 584h-51v37h275v-37h-52l109 -469l104 469h-51v37h156v-37z" />
    <glyph glyph-name="glyph303" horiz-adv-x="528" 
d="M485 0h-450v37l291 991h-131v-289h-152v326h442v-37l-290 -991h139v289h151v-326z" />
    <glyph glyph-name="glyph304" horiz-adv-x="430" 
d="M395 0h-30c-66.667 -0 -122 20.333 -166 61s-66 90 -66 148v244c0 54.667 -27.333 82 -82 82h-20v36h20c54.667 0 82 27.333 82 82v203c0 58 22 107.333 66 148s99.333 61 166 61h30v-37h-30c-48 0 -72 -27.333 -72 -82v-213c0 -88 -47.667 -148 -143 -180
c95.333 -32 143 -92 143 -180v-254c0 -54.667 24 -82 72 -82h30v-37z" />
    <glyph glyph-name="glyph305" horiz-adv-x="430" 
d="M399 535h-20c-22.667 0 -42 -8.16699 -58 -24.5s-24 -35.5 -24 -57.5v-244c0 -58 -21.833 -107.333 -65.5 -148s-98.834 -61 -165.501 -61h-31v37h31c47.333 0 71 27.333 71 82v254c0 88 48 148 144 180c-96 32 -144 92 -144 180v213c0 54.667 -23.667 82 -71 82h-31v37
h31c66.667 0 121.834 -20.333 165.501 -61s65.5 -90 65.5 -148v-203c0 -22 8 -41.167 24 -57.5s35.333 -24.5 58 -24.5h20v-36z" />
    <glyph glyph-name="glyph306" horiz-adv-x="575" 
d="M524 209c0 -58 -21.833 -107.333 -65.5 -148s-98.834 -61 -165.501 -61h-273v37h52v498h-52v36h52v457h-52v37h273c66.667 0 121.834 -20.333 165.501 -61s65.5 -90 65.5 -148v-647zM365 119v827c0 54.667 -24 82 -72 82h-62v-457h56v-36h-56v-498h62
c48 0 72 27.333 72 82z" />
    <glyph glyph-name="glyph307" horiz-adv-x="528" 
d="M500 0h-480v37h52v414l-52 -31v41l52 31v536h-52v37h263v-37h-52v-440l127 78v-41l-127 -78v-510h109v289h160v-326z" />
    <glyph glyph-name="glyph308" horiz-adv-x="532" 
d="M489 199c0 -59.333 -19.667 -108.667 -59 -148c-42 -40.667 -96 -61 -162 -61s-120 20.167 -162 60.5s-63 89.833 -63 148.5v127h160v-217c0 -54.667 21.667 -82 65 -82c41.333 0 62 27.333 62 82v157c0 66 -18.667 117.333 -56 154l-168 166c-42 41.333 -63 102 -63 182
v98c0 59.333 20.333 109 61 149s94 60 160 60s119.333 -20 160 -60s61 -89.667 61 -149v-127h-159v217c0 54.667 -20.667 82 -62 82c-40.667 0 -61 -27.333 -61 -82v-141c0 -66 18.333 -117 55 -153l168 -166c42 -42 63 -103 63 -183v-114zM461 1434l-158 -308h-78l-155 308
h47l149 -146l150 146h45z" />
    <glyph glyph-name="glyph309" horiz-adv-x="561" 
d="M551 1028h-51l-140 -584v-407h52v-37h-262v37h51v407l-140 584h-51v37h275v-37h-52l109 -469l104 469h-51v37h156v-37zM514 1413l-213 -287h-45l84 308h174v-21z" />
    <glyph glyph-name="glyph310" horiz-adv-x="549" 
d="M524 457c0 -58.667 -21.833 -108.167 -65.5 -148.5s-98.834 -60.5 -165.501 -60.5h-62v-211h52v-37h-263v37h52v991h-52v37h263v-37h-52v-166h62c66.667 0 121.834 -20.167 165.501 -60.5s65.5 -89.833 65.5 -148.5v-196zM365 367v376c0 54.667 -24 82 -72 82h-62v-540
h62c48 0 72 27.333 72 82z" />
    <glyph glyph-name="glyph311" horiz-adv-x="528" 
d="M485 0h-450v37l291 991h-131v-289h-152v326h442v-37l-290 -991h139v289h151v-326zM463 1434l-158 -308h-78l-155 308h47l149 -146l150 146h45z" />
    <glyph glyph-name="glyph312" horiz-adv-x="541" 
d="M530 0h-274v37h51l-28 258h-134l-30 -258h51v-37h-156v37h51l136 1028h147l135 -1028h51v-37zM274 332l-61 526l-63 -526h124zM498 1413l-213 -287h-45l84 308h174v-21z" />
    <glyph glyph-name="glyph313" horiz-adv-x="541" 
d="M530 0h-274v37h51l-28 258h-134l-30 -258h51v-37h-156v37h51l136 1028h147l135 -1028h51v-37zM274 332l-61 526l-63 -526h124zM299 1126h-45l-213 287v21h174z" />
    <glyph glyph-name="glyph314" horiz-adv-x="541" 
d="M530 0h-274v37h51l-28 258h-134l-30 -258h51v-37h-156v37h51l136 1028h147l135 -1028h51v-37zM274 332l-61 526l-63 -526h124zM471 1126h-45l-150 146l-149 -146h-47l155 308h78z" />
    <glyph glyph-name="glyph315" horiz-adv-x="541" 
d="M530 0h-274v37h51l-28 258h-134l-30 -258h51v-37h-156v37h51l136 1028h147l135 -1028h51v-37zM274 332l-61 526l-63 -526h124zM452 1143h-143v215h143v-215zM231 1143h-143v215h143v-215z" />
    <glyph glyph-name="glyph316" horiz-adv-x="541" 
d="M530 0h-274v37h51l-28 258h-134l-30 -258h51v-37h-156v37h51l136 1028h147l135 -1028h51v-37zM274 332l-61 526l-63 -526h124zM514 1331l-13.002 -59c-15.333 -75.333 -55.666 -113 -120.999 -113c-16 0 -33 2 -51 6l-155 37c-10 2.66699 -19 4 -27 4
c-30 0 -54.667 -19 -74 -57l-34 10l12 60c15.333 74.667 56 112 122 112c15.333 0 32 -2 50 -6l156 -37c9.33301 -2 18 -3 26 -3c30.667 0 55.334 18.667 74.001 56z" />
    <glyph glyph-name="glyph317" horiz-adv-x="541" 
d="M530 0h-274v37h51l-28 258h-134l-30 -258h51v-37h-156v37h51l136 1028h147l135 -1028h51v-37zM274 332l-61 526l-63 -526h124zM465 1280c0 -102.667 -65 -154 -195 -154c-129.333 0 -194 51.333 -194 154s64.667 154 194 154c130 0 195 -51.333 195 -154zM323 1219v122
c0 41.333 -17.667 62 -53 62s-53 -20.667 -53 -62v-122c0 -41.333 17.667 -62 53 -62s53 20.667 53 62z" />
    <glyph glyph-name="glyph318" horiz-adv-x="559" 
d="M514 199c0 -58.667 -21.833 -108.167 -65.5 -148.5s-98.834 -60.5 -165.501 -60.5s-122 20.167 -166 60.5s-66 89.833 -66 148.5v667c0 58.667 22 108.167 66 148.5s99.333 60.5 166 60.5s121.834 -20.167 165.501 -60.5s65.5 -89.833 65.5 -148.5v-127h-160v217
c0 54.667 -23.667 82 -71 82c-48 0 -72 -27.333 -72 -82v-847c0 -54.667 24 -82 72 -82c47.333 0 71 27.333 71 82v217h160v-127zM418 -172c0 -76.667 -41.667 -115 -125 -115h-110v31h39c42 0 63 28 63 84s-21 84 -63 84h-9v27l35 61h45l-35 -57h35
c83.333 0 125 -38.333 125 -115z" />
    <glyph glyph-name="glyph319" horiz-adv-x="553" 
d="M510 0h-490v37h52v991h-52v37h490v-326h-160v289h-119v-457h160v-36h-160v-498h119v289h160v-326zM479 1413l-213 -287h-45l84 308h174v-21z" />
    <glyph glyph-name="glyph320" horiz-adv-x="553" 
d="M510 0h-490v37h52v991h-52v37h490v-326h-160v289h-119v-457h160v-36h-160v-498h119v289h160v-326zM321 1126h-45l-213 287v21h174z" />
    <glyph glyph-name="glyph321" horiz-adv-x="553" 
d="M510 0h-490v37h52v991h-52v37h490v-326h-160v289h-119v-457h160v-36h-160v-498h119v289h160v-326zM471 1126h-45l-150 146l-149 -146h-47l155 308h78z" />
    <glyph glyph-name="glyph322" horiz-adv-x="559" 
d="M514 199c0 -58.667 -21.833 -108.167 -65.5 -148.5s-98.834 -60.5 -165.501 -60.5s-122 20.167 -166 60.5s-66 89.833 -66 148.5v667c0 58.667 22 108.167 66 148.5s99.333 60.5 166 60.5s121.834 -20.167 165.501 -60.5s65.5 -89.833 65.5 -148.5v-127h-160v217
c0 54.667 -23.667 82 -71 82c-48 0 -72 -27.333 -72 -82v-847c0 -54.667 24 -82 72 -82c47.333 0 71 27.333 71 82v217h160v-127zM418 -172c0 -76.667 -41.667 -115 -125 -115h-110v31h39c42 0 63 28 63 84s-21 84 -63 84h-9v27l35 61h45l-35 -57h35
c83.333 0 125 -38.333 125 -115z" />
    <glyph glyph-name="glyph323" horiz-adv-x="315" 
d="M289 0h-262v37h51v991h-51v37h262v-37h-51v-991h51v-37zM371 1413l-213 -287h-45l84 308h174v-21z" />
    <glyph glyph-name="glyph324" horiz-adv-x="315" 
d="M289 0h-262v37h51v991h-51v37h262v-37h-51v-991h51v-37zM174 1126h-45l-213 287v21h174z" />
    <glyph glyph-name="glyph325" horiz-adv-x="315" 
d="M289 0h-262v37h51v991h-51v37h262v-37h-51v-991h51v-37zM355 1126h-45l-150 146l-149 -146h-47l155 308h78z" />
    <glyph glyph-name="glyph326" horiz-adv-x="315" 
d="M289 0h-262v37h51v991h-51v37h262v-37h-51v-991h51v-37zM342 1143h-143v215h143v-215zM121 1143h-143v215h143v-215z" />
    <glyph glyph-name="glyph327" horiz-adv-x="535" 
d="M514 1028h-51v-1028h-111l-231 838v-801h51v-37h-152v37h52v991h-52v37h201l193 -696v659h-52v37h152v-37zM514 1331l-13.002 -59c-15.333 -75.333 -55.666 -113 -120.999 -113c-16 0 -33 2 -51 6l-155 37c-10 2.66699 -19 4 -27 4c-30 0 -54.667 -19 -74 -57l-34 10
l12 60c15.333 74.667 56 112 122 112c15.333 0 32 -2 50 -6l156 -37c9.33301 -2 18 -3 26 -3c30.667 0 55.334 18.667 74.001 56z" />
    <glyph glyph-name="glyph328" horiz-adv-x="565" 
d="M514 199c0 -58.667 -21.833 -108.167 -65.5 -148.5s-98.834 -60.5 -165.501 -60.5s-122 20.167 -166 60.5s-66 89.833 -66 148.5v667c0 58.667 22 108.167 66 148.5s99.333 60.5 166 60.5s121.834 -20.167 165.501 -60.5s65.5 -89.833 65.5 -148.5v-667zM354 109v847
c0 54.667 -23.667 82 -71 82c-48 0 -72 -27.333 -72 -82v-847c0 -54.667 24 -82 72 -82c47.333 0 71 27.333 71 82zM502 1413l-213 -287h-45l84 308h174v-21z" />
    <glyph glyph-name="glyph329" horiz-adv-x="565" 
d="M514 199c0 -58.667 -21.833 -108.167 -65.5 -148.5s-98.834 -60.5 -165.501 -60.5s-122 20.167 -166 60.5s-66 89.833 -66 148.5v667c0 58.667 22 108.167 66 148.5s99.333 60.5 166 60.5s121.834 -20.167 165.501 -60.5s65.5 -89.833 65.5 -148.5v-667zM354 109v847
c0 54.667 -23.667 82 -71 82c-48 0 -72 -27.333 -72 -82v-847c0 -54.667 24 -82 72 -82c47.333 0 71 27.333 71 82zM313 1126h-45l-213 287v21h174z" />
    <glyph glyph-name="glyph330" horiz-adv-x="565" 
d="M514 199c0 -58.667 -21.833 -108.167 -65.5 -148.5s-98.834 -60.5 -165.501 -60.5s-122 20.167 -166 60.5s-66 89.833 -66 148.5v667c0 58.667 22 108.167 66 148.5s99.333 60.5 166 60.5s121.834 -20.167 165.501 -60.5s65.5 -89.833 65.5 -148.5v-667zM354 109v847
c0 54.667 -23.667 82 -71 82c-48 0 -72 -27.333 -72 -82v-847c0 -54.667 24 -82 72 -82c47.333 0 71 27.333 71 82zM479 1126h-45l-150 146l-149 -146h-47l155 308h78z" />
    <glyph glyph-name="glyph331" horiz-adv-x="565" 
d="M514 199c0 -58.667 -21.833 -108.167 -65.5 -148.5s-98.834 -60.5 -165.501 -60.5s-122 20.167 -166 60.5s-66 89.833 -66 148.5v667c0 58.667 22 108.167 66 148.5s99.333 60.5 166 60.5s121.834 -20.167 165.501 -60.5s65.5 -89.833 65.5 -148.5v-667zM354 109v847
c0 54.667 -23.667 82 -71 82c-48 0 -72 -27.333 -72 -82v-847c0 -54.667 24 -82 72 -82c47.333 0 71 27.333 71 82zM466 1143h-143v215h143v-215zM245 1143h-143v215h143v-215z" />
    <glyph glyph-name="glyph332" horiz-adv-x="565" 
d="M514 199c0 -58.667 -21.833 -108.167 -65.5 -148.5s-98.834 -60.5 -165.501 -60.5s-122 20.167 -166 60.5s-66 89.833 -66 148.5v667c0 58.667 22 108.167 66 148.5s99.333 60.5 166 60.5s121.834 -20.167 165.501 -60.5s65.5 -89.833 65.5 -148.5v-667zM354 109v847
c0 54.667 -23.667 82 -71 82c-48 0 -72 -27.333 -72 -82v-847c0 -54.667 24 -82 72 -82c47.333 0 71 27.333 71 82zM531 1331l-13.002 -59c-15.333 -75.333 -55.666 -113 -120.999 -113c-16 0 -33 2 -51 6l-155 37c-10 2.66699 -19 4 -27 4c-30 0 -54.667 -19 -74 -57
l-34 10l12 60c15.333 74.667 56 112 122 112c15.333 0 32 -2 50 -6l156 -37c9.33301 -2 18 -3 26 -3c30.667 0 55.334 18.667 74.001 56z" />
    <glyph glyph-name="glyph333" horiz-adv-x="590" 
d="M573 1028h-51v-829c0 -58.667 -21.167 -108.167 -63.5 -148.5s-96.833 -60.5 -163.5 -60.5s-121.167 20.167 -163.5 60.5s-63.5 89.833 -63.5 148.5v829h-52v37h256v-37h-45v-919c0 -54.667 22.667 -82 68 -82c44.667 0 67 27.333 67 82v919h-45v37h256v-37zM522 1413
l-213 -287h-45l84 308h174v-21z" />
    <glyph glyph-name="glyph334" horiz-adv-x="590" 
d="M573 1028h-51v-829c0 -58.667 -21.167 -108.167 -63.5 -148.5s-96.833 -60.5 -163.5 -60.5s-121.167 20.167 -163.5 60.5s-63.5 89.833 -63.5 148.5v829h-52v37h256v-37h-45v-919c0 -54.667 22.667 -82 68 -82c44.667 0 67 27.333 67 82v919h-45v37h256v-37zM313 1126
h-45l-213 287v21h174z" />
    <glyph glyph-name="glyph335" horiz-adv-x="590" 
d="M573 1028h-51v-829c0 -58.667 -21.167 -108.167 -63.5 -148.5s-96.833 -60.5 -163.5 -60.5s-121.167 20.167 -163.5 60.5s-63.5 89.833 -63.5 148.5v829h-52v37h256v-37h-45v-919c0 -54.667 22.667 -82 68 -82c44.667 0 67 27.333 67 82v919h-45v37h256v-37zM490 1126
h-45l-150 146l-149 -146h-47l155 308h78z" />
    <glyph glyph-name="glyph336" horiz-adv-x="590" 
d="M573 1028h-51v-829c0 -58.667 -21.167 -108.167 -63.5 -148.5s-96.833 -60.5 -163.5 -60.5s-121.167 20.167 -163.5 60.5s-63.5 89.833 -63.5 148.5v829h-52v37h256v-37h-45v-919c0 -54.667 22.667 -82 68 -82c44.667 0 67 27.333 67 82v919h-45v37h256v-37zM477 1143
h-143v215h143v-215zM256 1143h-143v215h143v-215z" />
    <glyph glyph-name="glyph337" horiz-adv-x="467" 
d="M436 739h-123v-358l-49 -381h-61l-49 381v358h-123v37h123v252h-52v37h263v-37h-52v-252h123v-37z" />
    <glyph glyph-name="glyph338" horiz-adv-x="504" 
d="M457 616c0 -48 -20 -89.333 -60 -124s-88.333 -52 -145 -52c-57.333 0 -105.833 17.333 -145.5 52s-59.5 76 -59.5 124v283c0 48.667 19.833 90.167 59.5 124.5s88.167 51.5 145.5 51.5c56.667 0 105 -17.167 145 -51.5s60 -75.833 60 -124.5v-283zM315 543v430
c0 43.333 -21 65 -63 65c-42.667 0 -64 -21.667 -64 -65v-430c0 -44 21.333 -66 64 -66c42 0 63 22 63 66z" />
    <glyph glyph-name="glyph339" horiz-adv-x="559" 
d="M514 199c0 -54.667 -19.5 -102 -58.5 -142s-89.167 -62.333 -150.5 -67v-113h-45v113c-60.667 4.66699 -110.667 27 -150 67s-59 87.333 -59 142v667c0 54.667 19.667 102 59 142s89.333 62.333 150 67v113h45v-113c61.333 -4.66699 111.5 -27 150.5 -67
s58.5 -87.333 58.5 -142v-127h-160v217c0 54.667 -23.667 82 -71 82c-48 0 -72 -27.333 -72 -82v-847c0 -54.667 24 -82 72 -82c47.333 0 71 27.333 71 82v217h160v-127z" />
    <glyph glyph-name="glyph340" horiz-adv-x="588" 
d="M532 0h-505v37h51v498h-51v36h51v295c0 61.333 21 111.5 63 150.5s96.667 58.5 164 58.5s122 -19.5 164 -58.5s63 -89.167 63 -150.5v-127h-159v217c0 54.667 -22.667 82 -68 82c-44.667 0 -67 -27.333 -67 -82v-385h178v-36h-178v-498h135v289h159v-326z" />
    <glyph glyph-name="glyph341" horiz-adv-x="508" 
d="M463 792c0 -52 -19.667 -96 -59 -132s-89.333 -54 -150 -54c-60 0 -109.833 18 -149.5 54s-59.5 80 -59.5 132v465c0 52 19.833 96 59.5 132s89.5 54 149.5 54c60.667 0 110.667 -18 150 -54s59 -80 59 -132v-465zM319 712v625c0 49.333 -21.667 74 -65 74
c-42.667 0 -64 -24.667 -64 -74v-625c0 -48.667 21.333 -73 64 -73c43.333 0 65 24.333 65 73z" />
    <glyph glyph-name="glyph342" horiz-adv-x="496" 
d="M451 792c0 -54.667 -18.833 -99.334 -56.5 -134.001s-86.5 -52 -146.5 -52c-61.333 0 -110.833 17.333 -148.5 52s-56.5 79.334 -56.5 134.001v107h143v-187c0 -48.667 20.667 -73 62 -73c39.333 0 59 24.333 59 73v250c0 49.333 -21.667 74 -65 74h-193v397h389v-244
h-143v211h-102v-329h49c59.333 0 109 -18.5 149 -55.5s60 -81.5 60 -133.5v-90z" />
    <glyph glyph-name="glyph343" horiz-adv-x="512" 
d="M467 792c0 -54 -20 -98.499 -60 -133.499s-90.333 -52.5 -151 -52.5s-111 17.5 -151 52.5s-60 79.5 -60 133.5v465c0 54 19.667 98.5 59 133.5s89.333 52.5 150 52.5c61.333 0 111.5 -17.333 150.5 -52s58.5 -79.334 58.5 -134.001v-108h-144v188
c0 49.333 -21.667 74 -65 74c-42.667 0 -64 -24.667 -64 -74v-313c25.333 22.667 63 34 113 34c109.333 0 164 -56.667 164 -170v-96zM322 712.001v240c0 46.667 -20 70 -60 70c-26.667 0 -50.667 -9 -72 -27v-283c0 -48.667 22 -73 66 -73s66 24.333 66 73z" />
    <glyph glyph-name="glyph344" horiz-adv-x="487" 
d="M457 1400l-203 -786h-141l202 786h-147v-241h-141v274h430v-33z" />
    <glyph glyph-name="glyph345" horiz-adv-x="508" 
d="M463 792c0 -52 -19.667 -96.001 -59 -132.001s-89.333 -54 -150 -54c-60 0 -109.833 18 -149.5 54s-59.5 80 -59.5 132v76c0 78.667 43 133.334 129 164.001c-86 28 -129 82 -129 162v63c0 52 19.833 96 59.5 132s89.5 54 149.5 54c60.667 0 110.667 -18 150 -54
s59 -80 59 -132v-63c0 -80.667 -43 -134.667 -129 -162c86 -29.333 129 -84 129 -164v-76zM319 1122v215c0 49.333 -21.667 74 -65 74c-42.667 0 -64 -24.667 -64 -74v-215c0 -49.333 21.333 -74 64 -74c43.333 0 65 24.667 65 74zM319 711.999v230
c0 48.667 -21.667 73 -65 73c-42.667 0 -64 -24.333 -64 -73v-230c0 -48.667 21.333 -73 64 -73c43.333 0 65 24.333 65 73z" />
    <glyph glyph-name="glyph346" horiz-adv-x="512" 
d="M467 792c0 -54 -20 -98.5 -60 -133.5s-90.333 -52.5 -151 -52.5s-111 17.5 -151 52.5s-60 79.5 -60 133.5v107h145v-187c0 -48.667 22 -73 66 -73s66 24.333 66 73v291c-25.333 -23.333 -63 -35 -113 -35c-109.333 0 -164 56 -164 168v121c0 54 20 98.5 60 133.5
s90.333 52.5 151 52.5s111 -17.5 151 -52.5s60 -79.5 60 -133.5v-465zM322 1032v305c0 49.333 -22 74 -66 74s-66 -24.667 -66 -74v-262c0 -46.667 20 -70 60 -70c26.667 0 50.667 9 72 27z" />
    <glyph glyph-name="glyph347" horiz-adv-x="508" 
d="M463 178c0 -52 -19.667 -96 -59 -132s-89.333 -54 -150 -54c-60 0 -109.833 18 -149.5 54s-59.5 80 -59.5 132v465c0 52 19.833 96 59.5 132s89.5 54 149.5 54c60.667 0 110.667 -18 150 -54s59 -80 59 -132v-465zM319 98v625c0 49.333 -21.667 74 -65 74
c-42.667 0 -64 -24.667 -64 -74v-625c0 -48.667 21.333 -73 64 -73c43.333 0 65 24.333 65 73z" />
    <glyph glyph-name="glyph348" horiz-adv-x="326" 
d="M297 0h-262v37h51v745h-51v37h211v-782h51v-37z" />
    <glyph glyph-name="glyph349" horiz-adv-x="506" 
d="M457 0l-406 0.000976562v131c0 44 15.667 85.667 47 125l170 213c30 37.333 45 77.666 45 120.999v133c0 49.333 -19.667 74 -59 74s-59 -24.667 -59 -74v-199h-144v119c0 54.667 18.833 99.334 56.5 134.001s86.5 52 146.5 52s108.833 -17.333 146.5 -52
s56.5 -79.334 56.5 -134.001v-102c0 -40.667 -15.667 -79.667 -47 -117l-170 -203c-30 -36 -45 -73.333 -45 -112v-76h118v186h144v-219z" />
    <glyph glyph-name="glyph350" horiz-adv-x="494" 
d="M446 178c0 -56.667 -18.5 -101.833 -55.5 -135.5s-85.833 -50.5 -146.5 -50.5c-62 0 -111.333 16.667 -148 50s-55 78.666 -55 135.999v107h143v-187c0 -48.667 20 -73 60 -73c39.333 0 59 24.333 59 73v232c0 48.667 -24.667 73 -74 73h-94v35h94
c49.333 0 74 24.667 74 74v211c0 49.333 -19.667 74 -59 74c-40 0 -60 -24.667 -60 -74v-188h-143v108c0 56.667 18.5 101.834 55.5 135.501s86.167 50.5 147.5 50.5c60.667 0 109.5 -17 146.5 -51s55.5 -79 55.5 -135v-59c0 -80 -43 -134.667 -129 -164
c86 -27.333 129 -81.333 129 -162v-80z" />
    <glyph glyph-name="glyph351" horiz-adv-x="461" 
d="M432 0h-237v33h47v190h-222v39l222 557h143v-557h47v-39h-47v-190h47v-33zM242 262v461l-179 -461h179z" />
    <glyph glyph-name="glyph352" horiz-adv-x="496" 
d="M451 178c0 -54.667 -18.833 -99.334 -56.5 -134.001s-86.5 -52 -146.5 -52c-61.333 0 -110.833 17.333 -148.5 52s-56.5 79.334 -56.5 134.001v107h143v-187c0 -48.667 20.667 -73 62 -73c39.333 0 59 24.333 59 73v250c0 49.333 -21.667 74 -65 74h-193v397h389v-244
h-143v211h-102v-329h49c59.333 0 109 -18.5 149 -55.5s60 -81.5 60 -133.5v-90z" />
    <glyph glyph-name="glyph353" horiz-adv-x="512" 
d="M467 178c0 -54 -20 -98.499 -60 -133.499s-90.333 -52.5 -151 -52.5s-111 17.5 -151 52.5s-60 79.5 -60 133.5v465c0 54 19.667 98.5 59 133.5s89.333 52.5 150 52.5c61.333 0 111.5 -17.333 150.5 -52s58.5 -79.334 58.5 -134.001v-108h-144v188
c0 49.333 -21.667 74 -65 74c-42.667 0 -64 -24.667 -64 -74v-313c25.333 22.667 63 34 113 34c109.333 0 164 -56.667 164 -170v-96zM322 98.001v240c0 46.667 -20 70 -60 70c-26.667 0 -50.667 -9 -72 -27v-283c0 -48.667 22 -73 66 -73s66 24.333 66 73z" />
    <glyph glyph-name="glyph354" horiz-adv-x="487" 
d="M457 786l-203 -786h-141l202 786h-147v-241h-141v274h430v-33z" />
    <glyph glyph-name="glyph355" horiz-adv-x="508" 
d="M463 178c0 -52 -19.667 -96.001 -59 -132.001s-89.333 -54 -150 -54c-60 0 -109.833 18 -149.5 54s-59.5 80 -59.5 132v76c0 78.667 43 133.334 129 164.001c-86 28 -129 82 -129 162v63c0 52 19.833 96 59.5 132s89.5 54 149.5 54c60.667 0 110.667 -18 150 -54
s59 -80 59 -132v-63c0 -80.667 -43 -134.667 -129 -162c86 -29.333 129 -84 129 -164v-76zM319 507.999v215c0 49.333 -21.667 74 -65 74c-42.667 0 -64 -24.667 -64 -74v-215c0 -49.333 21.333 -74 64 -74c43.333 0 65 24.667 65 74zM319 97.999v230
c0 48.667 -21.667 73 -65 73c-42.667 0 -64 -24.333 -64 -73v-230c0 -48.667 21.333 -73 64 -73c43.333 0 65 24.333 65 73z" />
    <glyph glyph-name="glyph356" horiz-adv-x="512" 
d="M467 178c0 -54 -20 -98.5 -60 -133.5s-90.333 -52.5 -151 -52.5s-111 17.5 -151 52.5s-60 79.5 -60 133.5v107h145v-187c0 -48.667 22 -73 66 -73s66 24.333 66 73v291c-25.333 -23.333 -63 -35 -113 -35c-109.333 0 -164 56 -164 168v121c0 54 20 98.5 60 133.5
s90.333 52.5 151 52.5s111 -17.5 151 -52.5s60 -79.5 60 -133.5v-465zM322 418v305c0 49.333 -22 74 -66 74s-66 -24.667 -66 -74v-262c0 -46.667 20 -70 60 -70c26.667 0 50.667 9 72 27z" />
    <glyph glyph-name="glyph357" horiz-adv-x="594" 
d="M563 371c0 -65.333 -38 -130.999 -114 -196.999l10 -8c48.667 -39.333 73 -101.333 73 -186v-68c0 -58 -22.5 -107.333 -67.5 -148s-100.833 -61 -167.5 -61s-122.667 20.333 -168 61s-68 90 -68 148v127h164v-217c0 -54.667 24 -82 72 -82s72 27.333 72 82v115
c0 62.667 -20.667 111 -62 145l-186 156c-60 50 -90 106 -90 168c0 64.667 38 130 114 196l-12 10c-48 40 -72 102.333 -72 187v67c0 58 22.667 107.333 68 148s101.333 61 168 61s122.5 -20.333 167.5 -61s67.5 -90 67.5 -148v-127h-163v217c0 54.667 -24 82 -72 82
s-72 -27.333 -72 -82v-125c0 -58.667 20 -104.334 60 -137.001l188 -155c60 -50 90 -106 90 -168zM451 281.001c0 47.333 -25.333 91.667 -76 133l-201 164c-20.667 -26.667 -31 -54 -31 -82c0 -47.333 21.333 -88.333 64 -123l213 -174c20.667 26 31 53.333 31 82z" />
    <glyph glyph-name="glyph358" horiz-adv-x="565" 
d="M492 350c0 -62.667 -19.667 -113.167 -59 -151.5s-89.333 -57.5 -150 -57.5c-61.333 0 -111.5 19.167 -150.5 57.5s-58.5 88.833 -58.5 151.5v381c0 62.667 19.5 113.167 58.5 151.5s89.167 57.5 150.5 57.5c60.667 0 110.667 -19.167 150 -57.5s59 -88.833 59 -151.5
v-381z" />
    <glyph glyph-name="glyph359" horiz-adv-x="590" 
d="M559 0h-131v1028h-41v-1028h-90v37h51v414h-72c-66.667 0 -123.5 20.333 -170.5 61s-70.5 89.667 -70.5 147v197c0 57.333 23.5 106.5 70.5 147.5s103.833 61.5 170.5 61.5h283v-37h-51v-991h51v-37zM348 487v541h-72c-22 0 -41 -8 -57 -24s-24 -35.333 -24 -58v-377
c0 -22 8 -41.167 24 -57.5s35 -24.5 57 -24.5h72z" />
    <glyph glyph-name="glyph360" horiz-adv-x="754" 
d="M692 274c0 -78.667 -29.333 -145.332 -88 -199.999c-60.667 -56 -136.334 -84 -227.001 -84s-166 27.667 -226 83s-90 122.333 -90 201v517c0 78.667 30 145.667 90 201s135.333 83 226 83s166.334 -28 227.001 -84c58.667 -54.667 88 -121.334 88 -200.001v-517z
M653 270.002v525c0 68 -26.167 125.5 -78.5 172.5s-118.166 70.5 -197.499 70.5s-145.333 -23.5 -198 -70.5s-79 -104.5 -79 -172.5v-525c0 -68 26.333 -125.5 79 -172.5s118.667 -70.5 198 -70.5s145.166 23.5 197.499 70.5s78.5 104.5 78.5 172.5zM588 227.002h-49
c-67.333 0 -101 38.333 -101 115v137c0 38.667 -19 58 -57 58h-51v-283h37v-27h-187v27h35v582h-35v26h201c47.333 0 87.833 -14.167 121.5 -42.5s50.5 -62.5 50.5 -102.5v-39c0 -72.667 -33.333 -115.667 -100 -129c66.667 -13.333 100 -56.333 100 -129v-124
c0 -28 10.667 -42 32 -42h3v-27zM438 618.002v160c0 38.667 -19 58 -57 58h-51v-275h51c38 0 57 19 57 57z" />
    <glyph glyph-name="glyph361" horiz-adv-x="754" 
d="M692 274c0 -78.667 -29.333 -145.332 -88 -199.999c-60.667 -56 -136.334 -84 -227.001 -84s-166 27.667 -226 83s-90 122.333 -90 201v517c0 78.667 30 145.667 90 201s135.333 83 226 83s166.334 -28 227.001 -84c58.667 -54.667 88 -121.334 88 -200.001v-517z
M653 270.002v525c0 68 -26.167 125.5 -78.5 172.5s-118.166 70.5 -197.499 70.5s-145.333 -23.5 -198 -70.5s-79 -104.5 -79 -172.5v-525c0 -68 26.333 -125.5 79 -172.5s118.667 -70.5 198 -70.5s145.166 23.5 197.499 70.5s78.5 104.5 78.5 172.5zM549 358.002
c0 -39.333 -16.833 -73.333 -50.5 -102s-74.167 -43 -121.5 -43s-87.833 14.333 -121.5 43s-50.5 62.667 -50.5 102v357c0 40 16.833 74.167 50.5 102.5s74.167 42.5 121.5 42.5s87.833 -14.167 121.5 -42.5s50.5 -62.5 50.5 -102.5v-70h-115v133c0 38.667 -19 58 -57 58
c-38.667 0 -58 -19.333 -58 -58v-483c0 -38 19.333 -57 58 -57c38 0 57 19 57 57v133h115v-70z" />
    <glyph glyph-name="glyph362" horiz-adv-x="952" 
d="M915 426h-174v31h33v405l-76 -436h-86l-75 436v-405h32v-31h-102v31h31v579h-31v29h147l76 -473l80 473h145v-29h-32v-579h32v-31zM428 870h-100v166h-37v-579h31v-31h-175v31h33v579h-37v-166h-102v195h387v-195z" />
    <glyph glyph-name="glyph363" horiz-adv-x="561" 
d="M551 1028h-51l-140 -598h142v-37h-142v-67h142v-37h-142v-252h52v-37h-262v37h51v252h-129v37h129v67h-129v37h129v14l-140 584h-51v37h275v-37h-52l109 -469l104 469h-51v37h156v-37z" />
    <glyph glyph-name="glyph364" horiz-adv-x="791" 
d="M748 0h-490v37h51v258h-151l-54 -258h52v-37h-156v37h51l205 991h-49v37h541v-326h-160v289h-119v-457h160v-36h-160v-498h119v289h160v-326zM309 332v704l-145 -704h145z" />
    <glyph glyph-name="glyph365" horiz-adv-x="565" 
d="M514 199c0 -58.667 -21.833 -108.167 -65.5 -148.5s-98.834 -60.5 -165.501 -60.5c-35.333 0 -68.333 6 -99 18l-32 -131h-50l39 154c-60 42 -90 98 -90 168v667c0 58.667 22 108.167 66 148.5s99.333 60.5 166 60.5c34.667 0 67.334 -6 98.001 -18l33 131h49l-39 -154
c60 -42 90 -98 90 -168v-667zM354 956c0 54.667 -23.667 82 -71 82c-48 0 -72 -27.333 -72 -82v-628zM354 109v628l-143 -628c0 -54.667 24 -82 72 -82c47.333 0 71 27.333 71 82z" />
    <glyph glyph-name="glyph366" horiz-adv-x="549" 
d="M358 819h-159v246h159v-246zM508 199c0 -60.667 -21.5 -110.668 -64.5 -150.001s-97.833 -59 -164.5 -59c-67.333 0 -122.5 19.667 -165.5 59s-64.5 89.333 -64.5 150v51c0 74 15.667 135.333 47 184l80 125c37.333 58 59.333 110 66 156l6 43h61l19 -148
c2.66699 -21.333 4 -41.666 4 -60.999c0 -32 -8.33301 -60.667 -25 -86l-51 -80c-28.667 -44.667 -43 -104 -43 -178v-96c0 -54.667 22 -82 66 -82c43.333 0 65 27.333 65 82v217h164v-127z" />
    <glyph glyph-name="glyph367" horiz-adv-x="303" 
d="M231 819h-159v246h159v-246zM231 0h-159v377l49 381h61l49 -381v-377z" />
    <glyph glyph-name="glyph368" horiz-adv-x="836" 
d="M793 0h-510c-66.667 -0 -122 20.333 -166 61s-66 90 -66 148v647c0 58 22 107.333 66 148s99.333 61 166 61h510v-326h-160v289h-119v-457h160v-36h-160v-498h119v289h160v-326zM354 37v991h-71c-48 0 -72 -27.333 -72 -82v-827c0 -54.667 24 -82 72 -82h71z" />
    <glyph glyph-name="glyph369" horiz-adv-x="561" 
d="M466 1143h-143v215h143v-215zM245 1143h-143v215h143v-215z" />
    <glyph glyph-name="glyph370" horiz-adv-x="467" 
d="M436 381h-123l-49 -381h-61l-49 381h-123v37h123v321h-123v37h123v252h-52v37h263v-37h-52v-252h123v-37h-123v-321h123v-37z" />
    <glyph glyph-name="glyph371" horiz-adv-x="1444" 
d="M1403 166c0 -48.667 -18.667 -90.167 -56 -124.5s-84.333 -51.5 -141 -51.5c-56 0 -102.667 17.167 -140 51.5s-56 75.833 -56 124.5v283c0 48.667 18.667 90.167 56 124.5s84 51.5 140 51.5c56.667 0 103.667 -17.167 141 -51.5s56 -75.833 56 -124.5v-283zM946 166
c0 -48.667 -18.667 -90.167 -56 -124.5s-84 -51.5 -140 -51.5c-56.667 0 -103.667 17.167 -141 51.5s-56 75.833 -56 124.5v283c0 48.667 18.667 90.167 56 124.5s84.333 51.5 141 51.5c56 0 102.667 -17.167 140 -51.5s56 -75.833 56 -124.5v-283zM786 1065l-532 -1065h-47
l532 1065h47zM440 616c0 -48.667 -18.667 -90.167 -56 -124.5s-84 -51.5 -140 -51.5c-56.667 0 -103.667 17.167 -141 51.5s-56 75.833 -56 124.5v283c0 48.667 18.667 90.167 56 124.5s84.333 51.5 141 51.5c56 0 102.667 -17.167 140 -51.5s56 -75.833 56 -124.5v-283z
M1262 92v430c0 44 -18.667 66 -56 66c-36.667 0 -55 -22 -55 -66v-430c0 -43.333 18.333 -65 55 -65c37.333 0 56 21.667 56 65zM805 92v430c0 44 -18.333 66 -55 66c-37.333 0 -56 -22 -56 -66v-430c0 -43.333 18.667 -65 56 -65c36.667 0 55 21.667 55 65zM299 543v430
c0 43.333 -18.333 65 -55 65c-37.333 0 -56 -21.667 -56 -65v-430c0 -44 18.667 -66 56 -66c36.667 0 55 22 55 66z" />
    <glyph glyph-name="glyph373" horiz-adv-x="604" 
d="M559 199c0 -58.667 -21.833 -108.167 -65.5 -148.5s-98.834 -60.5 -165.501 -60.5s-122 20.167 -166 60.5s-66 89.833 -66 148.5v280h-82v37h82v68h-82v37h82v245c0 58.667 22 108.167 66 148.5s99.333 60.5 166 60.5s121.834 -20.167 165.501 -60.5
s65.5 -89.833 65.5 -148.5v-127h-160v217c0 54.667 -23.667 82 -71 82c-48 0 -72 -27.333 -72 -82v-335h184v-37h-184v-68h184v-37h-184v-370c0 -54.667 24 -82 72 -82c47.333 0 71 27.333 71 82v217h160v-127z" />
    <glyph glyph-name="glyph374" horiz-adv-x="471" 
d="M436 530h-174v-188h-53v188h-174v45h174v189h53v-189h174v-45z" />
    <glyph glyph-name="glyph375" horiz-adv-x="471" 
d="M436 530h-401v45h401v-45z" />
    <glyph glyph-name="glyph376" horiz-adv-x="471" 
d="M416 407l-35 -34l-145 145l-146 -145l-35 34l146 146l-146 145l35 35l146 -145l145 145l35 -35l-146 -145z" />
    <glyph glyph-name="glyph377" horiz-adv-x="553" 
d="M463 358l-402 174v41l402 174v-55l-336 -139l336 -140v-55z" />
    <glyph glyph-name="glyph378" horiz-adv-x="553" 
d="M477 618h-401v47h401v-47zM477 440h-401v47h401v-47z" />
    <glyph glyph-name="glyph379" horiz-adv-x="553" 
d="M492 532l-402 -174v55l336 140l-336 139v55l402 -174v-41z" />
    <glyph glyph-name="glyph380" horiz-adv-x="360" 
d="M356 1028h-41.001c-47.333 0 -71 -27.333 -71 -82v-375h82v-36h-82v-613c0 -58.667 -21 -107.667 -63 -147c-43.333 -41.333 -98.333 -62 -165 -62h-51v37h39c53.333 0 80 27.333 80 82v703h-51v36h51v285c0 58 21.833 107.333 65.5 148s98.834 61 165.501 61h41v-37z
" />
    <glyph glyph-name="glyph381" 
d="M557 166h-61l-209 366v41l209 369h61l-92 -389zM303 166h-61l-209 366v41l209 369h61l-92 -389z" />
    <glyph glyph-name="glyph382" 
d="M582 532l-209 -366h-62l92 387l-92 389h62l209 -369v-41zM328 532l-209 -366h-62l93 387l-93 389h62l209 -369v-41z" />
    <glyph glyph-name="glyph383" horiz-adv-x="360" 
d="M303 166h-61l-209 366v41l209 369h61l-92 -389z" />
    <glyph glyph-name="glyph384" horiz-adv-x="360" 
d="M328 532l-209 -366h-62l93 387l-93 389h62l209 -369v-41z" />
    <glyph glyph-name="glyph385" horiz-adv-x="307" 
d="M272 528h-237v49h237v-49z" />
    <glyph glyph-name="glyph386" horiz-adv-x="410" 
d="M375 532h-340v41h340v-41z" />
    <glyph glyph-name="glyph387" 
d="M580 532h-545v41h545v-41z" />
    <glyph glyph-name="glyph388" horiz-adv-x="512" 
d="M487 1065l-194 -1065h-139l-99 393h-51v37h195l69 -301l168 936h51z" />
    <glyph glyph-name="glyph389" horiz-adv-x="492" 
d="M444 1065l-32 -430h-164v36l121 394h75zM223 1065l-33 -430h-163v36l120 394h76z" />
    <glyph glyph-name="glyph390" horiz-adv-x="492" 
d="M446 1028l-120 -393h-76l33 430h163v-37zM225 1028l-121 -393h-75l32 430h164v-37z" />
    <glyph glyph-name="glyph391" horiz-adv-x="270" 
d="M223 1065l-33 -430h-163v36l120 394h76z" />
    <glyph glyph-name="glyph392" horiz-adv-x="270" 
d="M225 1028l-121 -393h-75l32 430h164v-37z" />
    <glyph glyph-name="glyph393" horiz-adv-x="492" 
d="M438 1028l-49 -393h-65l-50 393v37h164v-37zM217 1028l-49 -393h-66l-49 393v37h164v-37z" />
    <glyph glyph-name="glyph394" horiz-adv-x="270" 
d="M217 1028l-49 -393h-66l-49 393v37h164v-37z" />
    <glyph glyph-name="glyph395" horiz-adv-x="215" 
d="M133 -123h-51v1311h51v-1311z" />
    <glyph glyph-name="glyph396" horiz-adv-x="215" 
d="M133 578h-51v610h51v-610zM133 -123h-51v651h51v-651z" />
  </font>
</defs>
</svg>
